<svg width="1440" height="1024" viewBox="0 0 1440 1024" fill="none" xmlns="http://www.w3.org/2000/svg">
<rect width="1440" height="1024" fill="white"/>
<rect width="1440" height="1024" fill="#B1B1B1"/>
<rect x="418" y="339" width="603" height="345" rx="15" fill="#F2F1F6"/>
<path d="M497.258 423.207C496.152 423.207 495.107 423.077 494.124 422.816C493.156 422.539 492.319 422.14 491.613 421.618C491.367 421.449 491.221 421.249 491.175 421.019C491.129 420.788 491.152 420.573 491.244 420.373C491.352 420.174 491.505 420.043 491.705 419.982C491.905 419.905 492.135 419.951 492.396 420.12C493.087 420.627 493.825 420.988 494.608 421.203C495.391 421.418 496.275 421.525 497.258 421.525C498.64 421.525 499.661 421.272 500.322 420.765C500.998 420.243 501.336 419.559 501.336 418.715C501.336 418.039 501.09 417.501 500.598 417.102C500.122 416.702 499.316 416.388 498.179 416.157L495.783 415.673C494.339 415.366 493.256 414.867 492.534 414.176C491.828 413.469 491.475 412.532 491.475 411.365C491.475 410.397 491.72 409.552 492.212 408.83C492.719 408.108 493.418 407.548 494.308 407.148C495.199 406.749 496.228 406.549 497.396 406.549C498.364 406.549 499.262 406.688 500.092 406.964C500.936 407.225 501.697 407.625 502.372 408.162C502.588 408.331 502.71 408.531 502.741 408.761C502.787 408.976 502.756 409.176 502.649 409.36C502.541 409.545 502.388 409.668 502.188 409.729C501.988 409.775 501.75 409.714 501.474 409.545C500.86 409.068 500.214 408.731 499.539 408.531C498.878 408.331 498.156 408.231 497.373 408.231C496.159 408.231 495.192 408.516 494.47 409.084C493.748 409.637 493.387 410.374 493.387 411.296C493.387 412.033 493.61 412.617 494.055 413.047C494.516 413.477 495.261 413.792 496.29 413.991L498.686 414.498C500.237 414.821 501.382 415.312 502.119 415.973C502.872 416.618 503.248 417.501 503.248 418.622C503.248 419.529 503.002 420.327 502.511 421.019C502.035 421.71 501.343 422.247 500.437 422.631C499.546 423.015 498.486 423.207 497.258 423.207ZM510.374 423.207C509.053 423.207 508.062 422.862 507.402 422.171C506.741 421.464 506.411 420.45 506.411 419.129V413.254H504.867C504.33 413.254 504.061 413.008 504.061 412.517C504.061 412.041 504.33 411.803 504.867 411.803H506.411V409.153C506.411 408.523 506.726 408.208 507.356 408.208C507.97 408.208 508.277 408.523 508.277 409.153V411.803H511.18C511.718 411.803 511.987 412.041 511.987 412.517C511.987 413.008 511.718 413.254 511.18 413.254H508.277V418.945C508.277 419.82 508.462 420.489 508.83 420.949C509.199 421.395 509.798 421.618 510.627 421.618C510.919 421.618 511.165 421.587 511.365 421.525C511.564 421.464 511.741 421.433 511.894 421.433C512.033 421.418 512.148 421.464 512.24 421.572C512.332 421.679 512.378 421.863 512.378 422.124C512.378 422.309 512.34 422.478 512.263 422.631C512.202 422.785 512.086 422.892 511.918 422.954C511.733 423.015 511.487 423.069 511.18 423.115C510.888 423.177 510.62 423.207 510.374 423.207ZM517.461 423.207C516.693 423.207 516.002 423.061 515.388 422.77C514.789 422.462 514.312 422.048 513.959 421.525C513.606 421.003 513.429 420.42 513.429 419.774C513.429 418.96 513.637 418.315 514.051 417.839C514.481 417.363 515.18 417.025 516.148 416.825C517.131 416.61 518.467 416.503 520.157 416.503H520.894V415.788C520.894 414.836 520.694 414.153 520.295 413.738C519.911 413.308 519.289 413.093 518.429 413.093C517.891 413.093 517.346 413.162 516.793 413.3C516.255 413.438 515.695 413.661 515.111 413.968C514.85 414.107 514.627 414.137 514.443 414.06C514.274 413.968 514.151 413.83 514.074 413.646C514.013 413.446 514.013 413.246 514.074 413.047C514.151 412.832 514.305 412.67 514.535 412.563C515.196 412.225 515.856 411.979 516.517 411.826C517.192 411.672 517.83 411.595 518.429 411.595C519.873 411.595 520.94 411.948 521.631 412.655C522.338 413.362 522.691 414.46 522.691 415.95V422.194C522.691 422.839 522.407 423.161 521.839 423.161C521.24 423.161 520.94 422.839 520.94 422.194V421.065C520.648 421.725 520.195 422.247 519.581 422.631C518.982 423.015 518.275 423.207 517.461 423.207ZM517.761 421.802C518.682 421.802 519.435 421.487 520.019 420.857C520.602 420.212 520.894 419.398 520.894 418.415V417.724H520.18C518.936 417.724 517.953 417.785 517.231 417.908C516.524 418.016 516.025 418.215 515.733 418.507C515.457 418.784 515.318 419.168 515.318 419.659C515.318 420.289 515.533 420.804 515.964 421.203C516.409 421.602 517.008 421.802 517.761 421.802ZM528.529 427.308C528.176 427.308 527.938 427.17 527.815 426.894C527.692 426.633 527.7 426.333 527.838 425.995L529.244 422.816L525.004 412.955C524.851 412.601 524.843 412.294 524.981 412.033C525.135 411.772 525.419 411.641 525.834 411.641C526.264 411.641 526.579 411.887 526.778 412.379L530.257 420.88L533.759 412.379C533.882 412.102 534.013 411.91 534.151 411.803C534.289 411.695 534.489 411.641 534.75 411.641C535.103 411.641 535.342 411.772 535.464 412.033C535.587 412.294 535.58 412.594 535.441 412.932L529.543 426.571C529.42 426.848 529.282 427.04 529.128 427.147C528.99 427.255 528.79 427.308 528.529 427.308ZM544.738 409.107C543.924 409.107 543.517 408.723 543.517 407.955C543.517 407.202 543.924 406.826 544.738 406.826C545.552 406.826 545.959 407.202 545.959 407.955C545.959 408.723 545.552 409.107 544.738 409.107ZM544.738 423.115C544.123 423.115 543.816 422.777 543.816 422.101V412.678C543.816 412.018 544.123 411.687 544.738 411.687C545.367 411.687 545.682 412.018 545.682 412.678V422.101C545.682 422.777 545.367 423.115 544.738 423.115ZM550.093 423.161C549.478 423.161 549.171 422.839 549.171 422.194V412.586C549.171 411.956 549.471 411.641 550.07 411.641C550.684 411.641 550.991 411.956 550.991 412.586V413.715C551.36 413.008 551.882 412.478 552.558 412.125C553.234 411.772 553.994 411.595 554.839 411.595C557.496 411.595 558.825 413.07 558.825 416.019V422.194C558.825 422.839 558.518 423.161 557.903 423.161C557.273 423.161 556.959 422.839 556.959 422.194V416.134C556.959 415.09 556.751 414.329 556.336 413.853C555.937 413.362 555.292 413.116 554.401 413.116C553.372 413.116 552.55 413.438 551.936 414.084C551.337 414.713 551.037 415.558 551.037 416.618V422.194C551.037 422.839 550.722 423.161 550.093 423.161ZM572.699 423.207C571.378 423.207 570.387 422.862 569.727 422.171C569.066 421.464 568.736 420.45 568.736 419.129V413.254H567.192C566.655 413.254 566.386 413.008 566.386 412.517C566.386 412.041 566.655 411.803 567.192 411.803H568.736V409.153C568.736 408.523 569.051 408.208 569.681 408.208C570.295 408.208 570.602 408.523 570.602 409.153V411.803H573.505C574.043 411.803 574.312 412.041 574.312 412.517C574.312 413.008 574.043 413.254 573.505 413.254H570.602V418.945C570.602 419.82 570.787 420.489 571.155 420.949C571.524 421.395 572.123 421.618 572.952 421.618C573.244 421.618 573.49 421.587 573.69 421.525C573.889 421.464 574.066 421.433 574.219 421.433C574.358 421.418 574.473 421.464 574.565 421.572C574.657 421.679 574.703 421.863 574.703 422.124C574.703 422.309 574.665 422.478 574.588 422.631C574.527 422.785 574.411 422.892 574.243 422.954C574.058 423.015 573.812 423.069 573.505 423.115C573.213 423.177 572.945 423.207 572.699 423.207ZM577.318 423.161C576.703 423.161 576.396 422.839 576.396 422.194V407.54C576.396 406.91 576.703 406.596 577.318 406.596C577.947 406.596 578.262 406.91 578.262 407.54V413.646C578.631 412.97 579.145 412.463 579.806 412.125C580.482 411.772 581.234 411.595 582.064 411.595C584.721 411.595 586.05 413.07 586.05 416.019V422.194C586.05 422.839 585.743 423.161 585.128 423.161C584.498 423.161 584.184 422.839 584.184 422.194V416.134C584.184 415.09 583.976 414.329 583.561 413.853C583.162 413.362 582.517 413.116 581.626 413.116C580.597 413.116 579.775 413.438 579.161 414.084C578.562 414.713 578.262 415.558 578.262 416.618V422.194C578.262 422.839 577.947 423.161 577.318 423.161ZM594.537 423.207C592.77 423.207 591.373 422.693 590.344 421.664C589.314 420.619 588.8 419.206 588.8 417.424C588.8 416.272 589.03 415.259 589.491 414.383C589.952 413.492 590.582 412.809 591.38 412.332C592.194 411.841 593.131 411.595 594.191 411.595C595.712 411.595 596.902 412.087 597.762 413.07C598.623 414.037 599.053 415.374 599.053 417.079C599.053 417.555 598.784 417.793 598.246 417.793H590.62C590.681 419.068 591.05 420.043 591.726 420.719C592.402 421.38 593.339 421.71 594.537 421.71C595.044 421.71 595.558 421.648 596.08 421.525C596.603 421.387 597.11 421.149 597.601 420.811C597.954 420.581 598.246 420.535 598.477 420.673C598.722 420.811 598.845 421.026 598.845 421.318C598.861 421.595 598.707 421.84 598.384 422.055C597.878 422.424 597.271 422.708 596.564 422.908C595.873 423.108 595.197 423.207 594.537 423.207ZM594.237 412.978C593.177 412.978 592.34 413.308 591.726 413.968C591.112 414.629 590.751 415.497 590.643 416.572H597.44C597.394 415.435 597.094 414.552 596.541 413.922C596.004 413.292 595.236 412.978 594.237 412.978ZM608.915 423C608.27 423 607.947 422.67 607.947 422.009V407.632C607.947 406.972 608.262 406.642 608.892 406.642C609.521 406.642 609.836 406.972 609.836 407.632V421.341H617.393C617.977 421.341 618.269 421.618 618.269 422.171C618.269 422.724 617.977 423 617.393 423H608.915ZM624.745 423.207C623.655 423.207 622.71 422.969 621.911 422.493C621.112 422.017 620.49 421.349 620.045 420.489C619.615 419.613 619.4 418.584 619.4 417.401C619.4 416.219 619.615 415.197 620.045 414.337C620.49 413.461 621.112 412.786 621.911 412.309C622.71 411.833 623.655 411.595 624.745 411.595C625.82 411.595 626.757 411.833 627.556 412.309C628.37 412.786 628.992 413.461 629.422 414.337C629.868 415.197 630.09 416.219 630.09 417.401C630.09 418.584 629.868 419.613 629.422 420.489C628.992 421.349 628.37 422.017 627.556 422.493C626.757 422.969 625.82 423.207 624.745 423.207ZM624.745 421.71C625.79 421.71 626.627 421.341 627.256 420.604C627.886 419.851 628.201 418.784 628.201 417.401C628.201 416.004 627.886 414.936 627.256 414.199C626.627 413.461 625.79 413.093 624.745 413.093C623.685 413.093 622.84 413.461 622.211 414.199C621.596 414.936 621.289 416.004 621.289 417.401C621.289 418.784 621.596 419.851 622.211 420.604C622.84 421.341 623.685 421.71 624.745 421.71ZM637.548 423.207C636.457 423.207 635.512 422.969 634.714 422.493C633.915 422.017 633.293 421.349 632.847 420.489C632.417 419.613 632.202 418.584 632.202 417.401C632.202 416.219 632.417 415.197 632.847 414.337C633.293 413.461 633.915 412.786 634.714 412.309C635.512 411.833 636.457 411.595 637.548 411.595C638.623 411.595 639.56 411.833 640.359 412.309C641.173 412.786 641.795 413.461 642.225 414.337C642.67 415.197 642.893 416.219 642.893 417.401C642.893 418.584 642.67 419.613 642.225 420.489C641.795 421.349 641.173 422.017 640.359 422.493C639.56 422.969 638.623 423.207 637.548 423.207ZM637.548 421.71C638.592 421.71 639.429 421.341 640.059 420.604C640.689 419.851 641.004 418.784 641.004 417.401C641.004 416.004 640.689 414.936 640.059 414.199C639.429 413.461 638.592 413.093 637.548 413.093C636.488 413.093 635.643 413.461 635.013 414.199C634.399 414.936 634.092 416.004 634.092 417.401C634.092 418.784 634.399 419.851 635.013 420.604C635.643 421.341 636.488 421.71 637.548 421.71ZM646.618 427.308C646.003 427.308 645.696 426.994 645.696 426.364V412.586C645.696 411.956 645.996 411.641 646.595 411.641C647.224 411.641 647.539 411.956 647.539 412.586V413.784C647.862 413.108 648.361 412.578 649.037 412.194C649.713 411.795 650.488 411.595 651.364 411.595C652.362 411.595 653.23 411.833 653.967 412.309C654.72 412.77 655.296 413.438 655.695 414.314C656.11 415.174 656.317 416.203 656.317 417.401C656.317 418.584 656.11 419.613 655.695 420.489C655.296 421.349 654.72 422.017 653.967 422.493C653.23 422.969 652.362 423.207 651.364 423.207C650.504 423.207 649.736 423.015 649.06 422.631C648.384 422.247 647.885 421.717 647.562 421.042V426.364C647.562 426.994 647.247 427.308 646.618 427.308ZM650.972 421.71C652.017 421.71 652.854 421.341 653.484 420.604C654.113 419.851 654.428 418.784 654.428 417.401C654.428 416.004 654.113 414.936 653.484 414.199C652.854 413.461 652.017 413.093 650.972 413.093C649.928 413.093 649.091 413.461 648.461 414.199C647.831 414.936 647.516 416.004 647.516 417.401C647.516 418.784 647.831 419.851 648.461 420.604C649.091 421.341 649.928 421.71 650.972 421.71ZM659.51 423.092C659.126 423.092 658.818 422.977 658.588 422.747C658.358 422.501 658.242 422.194 658.242 421.825C658.242 421.456 658.358 421.157 658.588 420.926C658.818 420.681 659.126 420.558 659.51 420.558C659.894 420.558 660.193 420.681 660.408 420.926C660.639 421.157 660.754 421.456 660.754 421.825C660.754 422.194 660.639 422.501 660.408 422.747C660.193 422.977 659.894 423.092 659.51 423.092Z" fill="black"/>
<g filter="url(#filter0_d_3_3)">
<rect x="490" y="460" width="459" height="72" rx="8" fill="white"/>
<path d="M515.72 502.144C514.493 502.144 513.523 501.787 512.808 501.072C512.093 500.347 511.736 499.365 511.736 498.128C511.736 497.328 511.896 496.624 512.216 496.016C512.536 495.397 512.973 494.923 513.528 494.592C514.093 494.251 514.744 494.08 515.48 494.08C516.536 494.08 517.363 494.421 517.96 495.104C518.557 495.776 518.856 496.704 518.856 497.888C518.856 498.219 518.669 498.384 518.296 498.384H513C513.043 499.269 513.299 499.947 513.768 500.416C514.237 500.875 514.888 501.104 515.72 501.104C516.072 501.104 516.429 501.061 516.792 500.976C517.155 500.88 517.507 500.715 517.848 500.48C518.093 500.32 518.296 500.288 518.456 500.384C518.627 500.48 518.712 500.629 518.712 500.832C518.723 501.024 518.616 501.195 518.392 501.344C518.04 501.6 517.619 501.797 517.128 501.936C516.648 502.075 516.179 502.144 515.72 502.144ZM515.512 495.04C514.776 495.04 514.195 495.269 513.768 495.728C513.341 496.187 513.091 496.789 513.016 497.536H517.736C517.704 496.747 517.496 496.133 517.112 495.696C516.739 495.259 516.205 495.04 515.512 495.04ZM520.701 502.096C520.488 502.096 520.328 502.005 520.221 501.824C520.114 501.632 520.162 501.413 520.365 501.168L522.909 497.984L520.541 495.04C520.338 494.795 520.29 494.581 520.397 494.4C520.504 494.208 520.664 494.112 520.877 494.112C521.048 494.112 521.186 494.144 521.293 494.208C521.4 494.261 521.501 494.352 521.597 494.48L523.661 497.088L525.741 494.48C525.837 494.352 525.938 494.261 526.045 494.208C526.152 494.144 526.285 494.112 526.445 494.112C526.669 494.112 526.829 494.208 526.925 494.4C527.032 494.581 526.984 494.8 526.781 495.056L524.413 497.984L526.973 501.168C527.165 501.413 527.208 501.632 527.101 501.824C526.994 502.005 526.829 502.096 526.605 502.096C526.317 502.096 526.077 501.973 525.885 501.728L523.645 498.912L521.421 501.728C521.325 501.845 521.224 501.936 521.117 502C521.01 502.064 520.872 502.096 520.701 502.096ZM531.461 502.144C530.928 502.144 530.448 502.043 530.021 501.84C529.605 501.627 529.274 501.339 529.029 500.976C528.784 500.613 528.661 500.208 528.661 499.76C528.661 499.195 528.805 498.747 529.093 498.416C529.392 498.085 529.877 497.851 530.549 497.712C531.232 497.563 532.16 497.488 533.333 497.488H533.845V496.992C533.845 496.331 533.706 495.856 533.429 495.568C533.162 495.269 532.73 495.12 532.133 495.12C531.76 495.12 531.381 495.168 530.997 495.264C530.624 495.36 530.234 495.515 529.829 495.728C529.648 495.824 529.493 495.845 529.365 495.792C529.248 495.728 529.162 495.632 529.109 495.504C529.066 495.365 529.066 495.227 529.109 495.088C529.162 494.939 529.269 494.827 529.429 494.752C529.888 494.517 530.346 494.347 530.805 494.24C531.274 494.133 531.717 494.08 532.133 494.08C533.136 494.08 533.877 494.325 534.357 494.816C534.848 495.307 535.093 496.069 535.093 497.104V501.44C535.093 501.888 534.896 502.112 534.501 502.112C534.085 502.112 533.877 501.888 533.877 501.44V500.656C533.674 501.115 533.36 501.477 532.933 501.744C532.517 502.011 532.026 502.144 531.461 502.144ZM531.669 501.168C532.309 501.168 532.832 500.949 533.237 500.512C533.642 500.064 533.845 499.499 533.845 498.816V498.336H533.349C532.485 498.336 531.802 498.379 531.301 498.464C530.81 498.539 530.464 498.677 530.261 498.88C530.069 499.072 529.973 499.339 529.973 499.68C529.973 500.117 530.122 500.475 530.421 500.752C530.73 501.029 531.146 501.168 531.669 501.168ZM538.169 502.112C537.743 502.112 537.529 501.888 537.529 501.44V494.768C537.529 494.331 537.737 494.112 538.153 494.112C538.58 494.112 538.793 494.331 538.793 494.768V495.536C539.028 495.067 539.353 494.709 539.769 494.464C540.185 494.208 540.671 494.08 541.225 494.08C542.441 494.08 543.22 494.608 543.561 495.664C543.796 495.173 544.143 494.789 544.601 494.512C545.06 494.224 545.588 494.08 546.185 494.08C547.913 494.08 548.777 495.104 548.777 497.152V501.44C548.777 501.888 548.559 502.112 548.121 502.112C547.695 502.112 547.481 501.888 547.481 501.44V497.216C547.481 496.501 547.353 495.979 547.097 495.648C546.852 495.307 546.441 495.136 545.865 495.136C545.236 495.136 544.735 495.36 544.361 495.808C543.988 496.256 543.801 496.853 543.801 497.6V501.44C543.801 501.888 543.583 502.112 543.145 502.112C542.719 502.112 542.505 501.888 542.505 501.44V497.216C542.505 496.501 542.377 495.979 542.121 495.648C541.876 495.307 541.465 495.136 540.889 495.136C540.249 495.136 539.743 495.36 539.369 495.808C539.007 496.256 538.825 496.853 538.825 497.6V501.44C538.825 501.888 538.607 502.112 538.169 502.112ZM551.84 504.992C551.414 504.992 551.2 504.773 551.2 504.336V494.768C551.2 494.331 551.408 494.112 551.824 494.112C552.262 494.112 552.48 494.331 552.48 494.768V495.6C552.704 495.131 553.051 494.763 553.52 494.496C553.99 494.219 554.528 494.08 555.136 494.08C555.83 494.08 556.432 494.245 556.944 494.576C557.467 494.896 557.867 495.36 558.144 495.968C558.432 496.565 558.576 497.28 558.576 498.112C558.576 498.933 558.432 499.648 558.144 500.256C557.867 500.853 557.467 501.317 556.944 501.648C556.432 501.979 555.83 502.144 555.136 502.144C554.539 502.144 554.006 502.011 553.536 501.744C553.067 501.477 552.72 501.109 552.496 500.64V504.336C552.496 504.773 552.278 504.992 551.84 504.992ZM554.864 501.104C555.59 501.104 556.171 500.848 556.608 500.336C557.046 499.813 557.264 499.072 557.264 498.112C557.264 497.141 557.046 496.4 556.608 495.888C556.171 495.376 555.59 495.12 554.864 495.12C554.139 495.12 553.558 495.376 553.12 495.888C552.683 496.4 552.464 497.141 552.464 498.112C552.464 499.072 552.683 499.813 553.12 500.336C553.558 500.848 554.139 501.104 554.864 501.104ZM562.897 502.144C562.129 502.144 561.542 501.915 561.137 501.456C560.731 500.987 560.529 500.309 560.529 499.424V491.264C560.529 490.827 560.742 490.608 561.169 490.608C561.606 490.608 561.825 490.827 561.825 491.264V499.328C561.825 500.469 562.278 501.04 563.185 501.04C563.281 501.04 563.366 501.035 563.441 501.024C563.515 501.013 563.59 501.008 563.665 501.008C563.782 500.997 563.862 501.024 563.905 501.088C563.958 501.152 563.985 501.28 563.985 501.472C563.985 501.835 563.803 502.043 563.441 502.096C563.355 502.117 563.265 502.128 563.169 502.128C563.073 502.139 562.982 502.144 562.897 502.144ZM568.689 502.144C567.462 502.144 566.491 501.787 565.777 501.072C565.062 500.347 564.705 499.365 564.705 498.128C564.705 497.328 564.865 496.624 565.185 496.016C565.505 495.397 565.942 494.923 566.497 494.592C567.062 494.251 567.713 494.08 568.449 494.08C569.505 494.08 570.331 494.421 570.929 495.104C571.526 495.776 571.825 496.704 571.825 497.888C571.825 498.219 571.638 498.384 571.265 498.384H565.969C566.011 499.269 566.267 499.947 566.737 500.416C567.206 500.875 567.857 501.104 568.689 501.104C569.041 501.104 569.398 501.061 569.761 500.976C570.123 500.88 570.475 500.715 570.817 500.48C571.062 500.32 571.265 500.288 571.425 500.384C571.595 500.48 571.681 500.629 571.681 500.832C571.691 501.024 571.585 501.195 571.361 501.344C571.009 501.6 570.587 501.797 570.097 501.936C569.617 502.075 569.147 502.144 568.689 502.144ZM568.481 495.04C567.745 495.04 567.163 495.269 566.737 495.728C566.31 496.187 566.059 496.789 565.985 497.536H570.705C570.673 496.747 570.465 496.133 570.081 495.696C569.707 495.259 569.174 495.04 568.481 495.04ZM580.244 504.608C578.89 504.608 577.7 504.32 576.676 503.744C575.663 503.179 574.874 502.373 574.308 501.328C573.743 500.283 573.46 499.051 573.46 497.632C573.46 496.587 573.626 495.632 573.956 494.768C574.298 493.904 574.778 493.163 575.396 492.544C576.026 491.915 576.767 491.429 577.62 491.088C578.474 490.747 579.418 490.576 580.452 490.576C581.69 490.576 582.772 490.827 583.7 491.328C584.628 491.819 585.348 492.507 585.86 493.392C586.383 494.277 586.644 495.312 586.644 496.496C586.644 497.424 586.516 498.229 586.26 498.912C586.015 499.595 585.663 500.123 585.204 500.496C584.746 500.869 584.212 501.056 583.604 501.056C583.082 501.056 582.66 500.933 582.34 500.688C582.02 500.432 581.828 500.08 581.764 499.632C581.466 500.101 581.103 500.459 580.676 500.704C580.26 500.939 579.818 501.056 579.348 501.056C578.527 501.056 577.887 500.8 577.428 500.288C576.98 499.765 576.756 499.051 576.756 498.144C576.756 497.365 576.906 496.672 577.204 496.064C577.503 495.445 577.914 494.96 578.436 494.608C578.959 494.256 579.551 494.08 580.212 494.08C581.236 494.08 581.914 494.496 582.244 495.328L582.356 494.656C582.41 494.315 582.607 494.144 582.948 494.144C583.322 494.144 583.476 494.341 583.412 494.736L582.772 498.368C582.73 498.645 582.708 498.896 582.708 499.12C582.708 499.835 583.028 500.192 583.668 500.192C584.276 500.192 584.772 499.856 585.156 499.184C585.54 498.501 585.732 497.605 585.732 496.496C585.732 495.483 585.508 494.603 585.06 493.856C584.623 493.109 584.01 492.528 583.22 492.112C582.431 491.696 581.503 491.488 580.436 491.488C579.252 491.488 578.212 491.744 577.316 492.256C576.42 492.768 575.722 493.488 575.22 494.416C574.719 495.333 574.468 496.405 574.468 497.632C574.468 498.901 574.703 499.989 575.172 500.896C575.642 501.803 576.308 502.496 577.172 502.976C578.036 503.467 579.06 503.712 580.244 503.712C581.023 503.712 581.727 503.6 582.356 503.376C582.996 503.152 583.54 502.848 583.988 502.464C584.18 502.315 584.356 502.272 584.516 502.336C584.676 502.4 584.772 502.517 584.804 502.688C584.836 502.869 584.756 503.04 584.564 503.2C584.074 503.627 583.455 503.968 582.708 504.224C581.972 504.48 581.151 504.608 580.244 504.608ZM579.492 500.128C579.972 500.128 580.394 499.989 580.756 499.712C581.13 499.424 581.423 499.029 581.636 498.528C581.85 498.027 581.956 497.451 581.956 496.8C581.956 495.605 581.412 495.008 580.324 495.008C579.855 495.008 579.434 495.147 579.06 495.424C578.687 495.691 578.388 496.059 578.164 496.528C577.951 496.997 577.844 497.536 577.844 498.144C577.844 498.784 577.988 499.275 578.276 499.616C578.564 499.957 578.97 500.128 579.492 500.128ZM589.513 502.112C589.086 502.112 588.873 501.888 588.873 501.44V494.768C588.873 494.331 589.081 494.112 589.497 494.112C589.924 494.112 590.137 494.331 590.137 494.768V495.536C590.372 495.067 590.697 494.709 591.113 494.464C591.529 494.208 592.014 494.08 592.569 494.08C593.785 494.08 594.564 494.608 594.905 495.664C595.14 495.173 595.486 494.789 595.945 494.512C596.404 494.224 596.932 494.08 597.529 494.08C599.257 494.08 600.121 495.104 600.121 497.152V501.44C600.121 501.888 599.902 502.112 599.465 502.112C599.038 502.112 598.825 501.888 598.825 501.44V497.216C598.825 496.501 598.697 495.979 598.441 495.648C598.196 495.307 597.785 495.136 597.209 495.136C596.58 495.136 596.078 495.36 595.705 495.808C595.332 496.256 595.145 496.853 595.145 497.6V501.44C595.145 501.888 594.926 502.112 594.489 502.112C594.062 502.112 593.849 501.888 593.849 501.44V497.216C593.849 496.501 593.721 495.979 593.465 495.648C593.22 495.307 592.809 495.136 592.233 495.136C591.593 495.136 591.086 495.36 590.713 495.808C590.35 496.256 590.169 496.853 590.169 497.6V501.44C590.169 501.888 589.95 502.112 589.513 502.112ZM604.992 502.144C604.459 502.144 603.979 502.043 603.552 501.84C603.136 501.627 602.805 501.339 602.56 500.976C602.315 500.613 602.192 500.208 602.192 499.76C602.192 499.195 602.336 498.747 602.624 498.416C602.923 498.085 603.408 497.851 604.08 497.712C604.763 497.563 605.691 497.488 606.864 497.488H607.376V496.992C607.376 496.331 607.237 495.856 606.96 495.568C606.693 495.269 606.261 495.12 605.664 495.12C605.291 495.12 604.912 495.168 604.528 495.264C604.155 495.36 603.765 495.515 603.36 495.728C603.179 495.824 603.024 495.845 602.896 495.792C602.779 495.728 602.693 495.632 602.64 495.504C602.597 495.365 602.597 495.227 602.64 495.088C602.693 494.939 602.8 494.827 602.96 494.752C603.419 494.517 603.877 494.347 604.336 494.24C604.805 494.133 605.248 494.08 605.664 494.08C606.667 494.08 607.408 494.325 607.888 494.816C608.379 495.307 608.624 496.069 608.624 497.104V501.44C608.624 501.888 608.427 502.112 608.032 502.112C607.616 502.112 607.408 501.888 607.408 501.44V500.656C607.205 501.115 606.891 501.477 606.464 501.744C606.048 502.011 605.557 502.144 604.992 502.144ZM605.2 501.168C605.84 501.168 606.363 500.949 606.768 500.512C607.173 500.064 607.376 499.499 607.376 498.816V498.336H606.88C606.016 498.336 605.333 498.379 604.832 498.464C604.341 498.539 603.995 498.677 603.792 498.88C603.6 499.072 603.504 499.339 603.504 499.68C603.504 500.117 603.653 500.475 603.952 500.752C604.261 501.029 604.677 501.168 605.2 501.168ZM611.669 492.352C611.103 492.352 610.821 492.085 610.821 491.552C610.821 491.029 611.103 490.768 611.669 490.768C612.234 490.768 612.517 491.029 612.517 491.552C612.517 492.085 612.234 492.352 611.669 492.352ZM611.669 502.08C611.242 502.08 611.029 501.845 611.029 501.376V494.832C611.029 494.373 611.242 494.144 611.669 494.144C612.106 494.144 612.325 494.373 612.325 494.832V501.376C612.325 501.845 612.106 502.08 611.669 502.08ZM617.115 502.144C616.347 502.144 615.761 501.915 615.355 501.456C614.95 500.987 614.747 500.309 614.747 499.424V491.264C614.747 490.827 614.961 490.608 615.387 490.608C615.825 490.608 616.043 490.827 616.043 491.264V499.328C616.043 500.469 616.497 501.04 617.403 501.04C617.499 501.04 617.585 501.035 617.659 501.024C617.734 501.013 617.809 501.008 617.883 501.008C618.001 500.997 618.081 501.024 618.123 501.088C618.177 501.152 618.203 501.28 618.203 501.472C618.203 501.835 618.022 502.043 617.659 502.096C617.574 502.117 617.483 502.128 617.387 502.128C617.291 502.139 617.201 502.144 617.115 502.144ZM620.262 502.064C619.995 502.064 619.782 501.984 619.622 501.824C619.462 501.653 619.382 501.44 619.382 501.184C619.382 500.928 619.462 500.72 619.622 500.56C619.782 500.389 619.995 500.304 620.262 500.304C620.529 500.304 620.737 500.389 620.886 500.56C621.046 500.72 621.126 500.928 621.126 501.184C621.126 501.44 621.046 501.653 620.886 501.824C620.737 501.984 620.529 502.064 620.262 502.064ZM626.215 502.144C625.436 502.144 624.764 501.979 624.199 501.648C623.634 501.307 623.196 500.832 622.887 500.224C622.588 499.605 622.439 498.885 622.439 498.064C622.439 496.827 622.775 495.856 623.447 495.152C624.119 494.437 625.042 494.08 626.215 494.08C626.599 494.08 626.999 494.144 627.415 494.272C627.831 494.389 628.21 494.587 628.551 494.864C628.732 494.992 628.807 495.152 628.775 495.344C628.754 495.536 628.663 495.68 628.503 495.776C628.354 495.872 628.178 495.851 627.975 495.712C627.687 495.499 627.399 495.349 627.111 495.264C626.834 495.179 626.562 495.136 626.295 495.136C625.484 495.136 624.86 495.392 624.423 495.904C623.986 496.405 623.767 497.131 623.767 498.08C623.767 499.008 623.986 499.744 624.423 500.288C624.86 500.821 625.484 501.088 626.295 501.088C626.562 501.088 626.834 501.045 627.111 500.96C627.399 500.875 627.687 500.725 627.975 500.512C628.178 500.373 628.354 500.357 628.503 500.464C628.652 500.56 628.732 500.704 628.743 500.896C628.764 501.088 628.69 501.243 628.519 501.36C628.178 501.637 627.804 501.84 627.399 501.968C626.994 502.085 626.599 502.144 626.215 502.144ZM633.401 502.144C632.644 502.144 631.988 501.979 631.433 501.648C630.878 501.317 630.446 500.853 630.137 500.256C629.838 499.648 629.689 498.933 629.689 498.112C629.689 497.291 629.838 496.581 630.137 495.984C630.446 495.376 630.878 494.907 631.433 494.576C631.988 494.245 632.644 494.08 633.401 494.08C634.148 494.08 634.798 494.245 635.353 494.576C635.918 494.907 636.35 495.376 636.649 495.984C636.958 496.581 637.113 497.291 637.113 498.112C637.113 498.933 636.958 499.648 636.649 500.256C636.35 500.853 635.918 501.317 635.353 501.648C634.798 501.979 634.148 502.144 633.401 502.144ZM633.401 501.104C634.126 501.104 634.708 500.848 635.145 500.336C635.582 499.813 635.801 499.072 635.801 498.112C635.801 497.141 635.582 496.4 635.145 495.888C634.708 495.376 634.126 495.12 633.401 495.12C632.665 495.12 632.078 495.376 631.641 495.888C631.214 496.4 631.001 497.141 631.001 498.112C631.001 499.072 631.214 499.813 631.641 500.336C632.078 500.848 632.665 501.104 633.401 501.104ZM639.732 502.112C639.305 502.112 639.092 501.888 639.092 501.44V494.768C639.092 494.331 639.3 494.112 639.716 494.112C640.142 494.112 640.356 494.331 640.356 494.768V495.536C640.59 495.067 640.916 494.709 641.332 494.464C641.748 494.208 642.233 494.08 642.788 494.08C644.004 494.08 644.782 494.608 645.124 495.664C645.358 495.173 645.705 494.789 646.164 494.512C646.622 494.224 647.15 494.08 647.748 494.08C649.476 494.08 650.34 495.104 650.34 497.152V501.44C650.34 501.888 650.121 502.112 649.684 502.112C649.257 502.112 649.044 501.888 649.044 501.44V497.216C649.044 496.501 648.916 495.979 648.66 495.648C648.414 495.307 648.004 495.136 647.428 495.136C646.798 495.136 646.297 495.36 645.924 495.808C645.55 496.256 645.364 496.853 645.364 497.6V501.44C645.364 501.888 645.145 502.112 644.708 502.112C644.281 502.112 644.068 501.888 644.068 501.44V497.216C644.068 496.501 643.94 495.979 643.684 495.648C643.438 495.307 643.028 495.136 642.452 495.136C641.812 495.136 641.305 495.36 640.932 495.808C640.569 496.256 640.388 496.853 640.388 497.6V501.44C640.388 501.888 640.169 502.112 639.732 502.112Z" fill="#656565"/>
</g>
<g filter="url(#filter1_d_3_3)">
<rect x="490" y="556" width="459" height="72" rx="8" fill="#857BAD"/>
<path d="M681.144 598.192C680.286 598.192 679.448 598.096 678.629 597.904C677.822 597.712 677.118 597.424 676.517 597.04C676.222 596.848 676.043 596.611 675.979 596.33C675.915 596.048 675.934 595.786 676.037 595.542C676.152 595.286 676.325 595.114 676.555 595.024C676.798 594.922 677.074 594.966 677.381 595.158C677.944 595.491 678.539 595.734 679.166 595.888C679.794 596.042 680.453 596.118 681.144 596.118C682.155 596.118 682.891 595.952 683.352 595.619C683.813 595.274 684.043 594.832 684.043 594.294C684.043 593.846 683.877 593.494 683.544 593.238C683.224 592.982 682.667 592.771 681.874 592.605L679.762 592.163C677.355 591.651 676.152 590.416 676.152 588.458C676.152 587.613 676.376 586.877 676.824 586.25C677.272 585.622 677.893 585.136 678.686 584.79C679.48 584.445 680.395 584.272 681.432 584.272C682.2 584.272 682.93 584.368 683.621 584.56C684.312 584.752 684.933 585.034 685.483 585.405C685.739 585.584 685.893 585.808 685.944 586.077C685.995 586.333 685.963 586.576 685.848 586.806C685.733 587.024 685.547 587.178 685.291 587.267C685.048 587.344 684.76 587.286 684.427 587.094C683.954 586.826 683.474 586.634 682.987 586.518C682.501 586.403 681.976 586.346 681.413 586.346C680.53 586.346 679.838 586.531 679.339 586.902C678.84 587.274 678.59 587.76 678.59 588.362C678.59 588.822 678.744 589.194 679.051 589.475C679.358 589.744 679.883 589.955 680.626 590.109L682.718 590.55C683.986 590.819 684.926 591.242 685.541 591.818C686.168 592.394 686.482 593.162 686.482 594.122C686.482 594.928 686.264 595.638 685.829 596.253C685.394 596.867 684.773 597.347 683.966 597.693C683.173 598.026 682.232 598.192 681.144 598.192ZM691.759 598.192C689.455 598.192 688.303 596.899 688.303 594.314V589.667C688.303 588.861 688.7 588.458 689.493 588.458C690.3 588.458 690.703 588.861 690.703 589.667V594.352C690.703 595.018 690.837 595.51 691.106 595.83C691.375 596.15 691.804 596.31 692.393 596.31C693.033 596.31 693.557 596.093 693.967 595.658C694.377 595.21 694.581 594.621 694.581 593.891V589.667C694.581 588.861 694.978 588.458 695.772 588.458C696.578 588.458 696.981 588.861 696.981 589.667V596.925C696.981 597.744 696.591 598.154 695.81 598.154C695.029 598.154 694.639 597.744 694.639 596.925V596.598C694.012 597.661 693.052 598.192 691.759 598.192ZM704.894 598.192C704.202 598.192 703.588 598.045 703.05 597.75C702.513 597.443 702.11 597.034 701.841 596.522V596.925C701.841 597.744 701.45 598.154 700.67 598.154C699.876 598.154 699.479 597.744 699.479 596.925V585.52C699.479 584.714 699.876 584.31 700.67 584.31C701.476 584.31 701.879 584.714 701.879 585.52V589.994C702.161 589.52 702.564 589.142 703.089 588.861C703.626 588.566 704.228 588.419 704.894 588.419C705.726 588.419 706.449 588.618 707.063 589.014C707.678 589.411 708.158 589.974 708.503 590.704C708.849 591.421 709.022 592.285 709.022 593.296C709.022 594.294 708.849 595.165 708.503 595.907C708.158 596.637 707.671 597.2 707.044 597.597C706.43 597.994 705.713 598.192 704.894 598.192ZM704.222 596.368C704.938 596.368 705.514 596.112 705.95 595.6C706.385 595.075 706.602 594.307 706.602 593.296C706.602 592.272 706.385 591.51 705.95 591.011C705.514 590.499 704.938 590.243 704.222 590.243C703.505 590.243 702.929 590.499 702.494 591.011C702.058 591.51 701.841 592.272 701.841 593.296C701.841 594.307 702.058 595.075 702.494 595.6C702.929 596.112 703.505 596.368 704.222 596.368ZM714.429 598.192C713.878 598.192 713.296 598.134 712.681 598.019C712.067 597.904 711.517 597.706 711.03 597.424C710.761 597.27 710.595 597.085 710.531 596.867C710.467 596.637 710.473 596.426 710.55 596.234C710.64 596.029 710.781 595.882 710.973 595.792C711.177 595.702 711.414 595.722 711.683 595.85C712.195 596.093 712.675 596.266 713.123 596.368C713.571 596.458 714.013 596.502 714.448 596.502C715.062 596.502 715.517 596.4 715.811 596.195C716.118 595.978 716.272 595.696 716.272 595.35C716.272 594.813 715.875 594.467 715.081 594.314L713.161 593.949C711.536 593.642 710.723 592.797 710.723 591.414C710.723 590.8 710.889 590.269 711.222 589.821C711.568 589.373 712.041 589.027 712.643 588.784C713.245 588.541 713.936 588.419 714.717 588.419C715.843 588.419 716.848 588.669 717.731 589.168C717.974 589.296 718.115 589.475 718.153 589.706C718.205 589.923 718.179 590.134 718.077 590.339C717.987 590.531 717.84 590.672 717.635 590.762C717.43 590.838 717.193 590.813 716.925 590.685C716.528 590.48 716.144 590.333 715.773 590.243C715.414 590.154 715.069 590.109 714.736 590.109C714.109 590.109 713.641 590.218 713.334 590.435C713.04 590.653 712.893 590.941 712.893 591.299C712.893 591.862 713.257 592.208 713.987 592.336L715.907 592.701C716.739 592.854 717.366 593.136 717.789 593.546C718.224 593.955 718.441 594.506 718.441 595.197C718.441 596.131 718.077 596.867 717.347 597.405C716.617 597.93 715.645 598.192 714.429 598.192ZM724.706 598.192C723.72 598.192 722.863 597.994 722.133 597.597C721.404 597.187 720.84 596.611 720.444 595.869C720.047 595.126 719.848 594.256 719.848 593.258C719.848 592.259 720.047 591.402 720.444 590.685C720.84 589.955 721.404 589.398 722.133 589.014C722.863 588.618 723.72 588.419 724.706 588.419C725.128 588.419 725.583 588.477 726.069 588.592C726.568 588.707 727.036 588.899 727.471 589.168C727.727 589.322 727.874 589.52 727.912 589.763C727.964 590.006 727.932 590.23 727.816 590.435C727.714 590.64 727.554 590.787 727.336 590.877C727.132 590.966 726.895 590.934 726.626 590.781C726.037 590.448 725.468 590.282 724.917 590.282C724.085 590.282 723.439 590.544 722.978 591.069C722.53 591.581 722.306 592.317 722.306 593.277C722.306 594.224 722.53 594.973 722.978 595.523C723.439 596.061 724.085 596.33 724.917 596.33C725.468 596.33 726.037 596.17 726.626 595.85C726.895 595.696 727.132 595.664 727.336 595.754C727.541 595.843 727.688 595.997 727.778 596.214C727.868 596.419 727.887 596.643 727.836 596.886C727.784 597.117 727.637 597.309 727.394 597.462C726.972 597.718 726.524 597.904 726.05 598.019C725.576 598.134 725.128 598.192 724.706 598.192ZM730.652 598.154C729.833 598.154 729.423 597.744 729.423 596.925V589.667C729.423 588.861 729.813 588.458 730.594 588.458C731.375 588.458 731.765 588.861 731.765 589.667V590.262C732.226 589.162 733.212 588.547 734.722 588.419C735.273 588.355 735.58 588.669 735.644 589.36C735.708 590.038 735.375 590.416 734.645 590.493L734.223 590.531C732.649 590.685 731.861 591.491 731.861 592.95V596.925C731.861 597.744 731.458 598.154 730.652 598.154ZM738.132 586.691C737.684 586.691 737.332 586.582 737.076 586.365C736.833 586.134 736.711 585.821 736.711 585.424C736.711 585.014 736.833 584.701 737.076 584.483C737.332 584.266 737.684 584.157 738.132 584.157C739.079 584.157 739.553 584.579 739.553 585.424C739.553 586.269 739.079 586.691 738.132 586.691ZM738.132 598.134C737.748 598.134 737.454 598.019 737.249 597.789C737.044 597.558 736.942 597.238 736.942 596.829V589.782C736.942 588.912 737.339 588.477 738.132 588.477C738.939 588.477 739.342 588.912 739.342 589.782V596.829C739.342 597.238 739.239 597.558 739.035 597.789C738.83 598.019 738.529 598.134 738.132 598.134ZM747.25 598.192C746.559 598.192 745.944 598.045 745.407 597.75C744.869 597.443 744.466 597.034 744.197 596.522V596.925C744.197 597.744 743.807 598.154 743.026 598.154C742.232 598.154 741.836 597.744 741.836 596.925V585.52C741.836 584.714 742.232 584.31 743.026 584.31C743.832 584.31 744.236 584.714 744.236 585.52V589.994C744.517 589.52 744.92 589.142 745.445 588.861C745.983 588.566 746.584 588.419 747.25 588.419C748.082 588.419 748.805 588.618 749.42 589.014C750.034 589.411 750.514 589.974 750.86 590.704C751.205 591.421 751.378 592.285 751.378 593.296C751.378 594.294 751.205 595.165 750.86 595.907C750.514 596.637 750.028 597.2 749.4 597.597C748.786 597.994 748.069 598.192 747.25 598.192ZM746.578 596.368C747.295 596.368 747.871 596.112 748.306 595.6C748.741 595.075 748.959 594.307 748.959 593.296C748.959 592.272 748.741 591.51 748.306 591.011C747.871 590.499 747.295 590.243 746.578 590.243C745.861 590.243 745.285 590.499 744.85 591.011C744.415 591.51 744.197 592.272 744.197 593.296C744.197 594.307 744.415 595.075 744.85 595.6C745.285 596.112 745.861 596.368 746.578 596.368ZM757.975 598.192C756.913 598.192 755.998 597.994 755.23 597.597C754.462 597.2 753.866 596.637 753.444 595.907C753.034 595.178 752.83 594.314 752.83 593.315C752.83 592.342 753.028 591.491 753.425 590.762C753.834 590.032 754.391 589.462 755.095 589.053C755.812 588.63 756.625 588.419 757.534 588.419C758.865 588.419 759.914 588.842 760.682 589.686C761.463 590.531 761.854 591.683 761.854 593.142C761.854 593.616 761.546 593.853 760.932 593.853H755.134C755.313 595.53 756.273 596.368 758.014 596.368C758.346 596.368 758.718 596.33 759.127 596.253C759.55 596.163 759.946 596.016 760.318 595.811C760.65 595.619 760.932 595.562 761.162 595.638C761.393 595.702 761.553 595.837 761.642 596.042C761.745 596.246 761.758 596.477 761.681 596.733C761.617 596.976 761.438 597.187 761.143 597.366C760.695 597.648 760.177 597.859 759.588 598C759.012 598.128 758.474 598.192 757.975 598.192ZM757.63 590.051C756.926 590.051 756.356 590.269 755.921 590.704C755.486 591.139 755.223 591.728 755.134 592.47H759.857C759.806 591.69 759.588 591.094 759.204 590.685C758.833 590.262 758.308 590.051 757.63 590.051Z" fill="white"/>
</g>
<path d="M441.272 370.144C440.163 370.144 439.213 369.909 438.424 369.44C437.635 368.971 437.027 368.304 436.6 367.44C436.184 366.576 435.976 365.547 435.976 364.352C435.976 363.168 436.184 362.144 436.6 361.28C437.027 360.416 437.635 359.749 438.424 359.28C439.213 358.811 440.163 358.576 441.272 358.576C441.933 358.576 442.563 358.672 443.16 358.864C443.757 359.056 444.275 359.328 444.712 359.68C444.893 359.808 444.995 359.957 445.016 360.128C445.048 360.299 445.021 360.453 444.936 360.592C444.851 360.72 444.728 360.805 444.568 360.848C444.419 360.88 444.248 360.827 444.056 360.688C443.299 360.08 442.381 359.776 441.304 359.776C440.035 359.776 439.064 360.176 438.392 360.976C437.72 361.776 437.384 362.901 437.384 364.352C437.384 365.813 437.72 366.944 438.392 367.744C439.064 368.544 440.035 368.944 441.304 368.944C442.381 368.944 443.309 368.635 444.088 368.016C444.28 367.888 444.451 367.84 444.6 367.872C444.76 367.904 444.877 367.984 444.952 368.112C445.037 368.24 445.069 368.384 445.048 368.544C445.027 368.704 444.936 368.848 444.776 368.976C444.317 369.36 443.789 369.653 443.192 369.856C442.595 370.048 441.955 370.144 441.272 370.144ZM449.18 370.144C448.646 370.144 448.166 370.043 447.74 369.84C447.324 369.627 446.993 369.339 446.748 368.976C446.502 368.613 446.38 368.208 446.38 367.76C446.38 367.195 446.524 366.747 446.812 366.416C447.11 366.085 447.596 365.851 448.268 365.712C448.95 365.563 449.878 365.488 451.052 365.488H451.564V364.992C451.564 364.331 451.425 363.856 451.148 363.568C450.881 363.269 450.449 363.12 449.852 363.12C449.478 363.12 449.1 363.168 448.716 363.264C448.342 363.36 447.953 363.515 447.548 363.728C447.366 363.824 447.212 363.845 447.084 363.792C446.966 363.728 446.881 363.632 446.828 363.504C446.785 363.365 446.785 363.227 446.828 363.088C446.881 362.939 446.988 362.827 447.148 362.752C447.606 362.517 448.065 362.347 448.524 362.24C448.993 362.133 449.436 362.08 449.852 362.08C450.854 362.08 451.596 362.325 452.076 362.816C452.566 363.307 452.812 364.069 452.812 365.104V369.44C452.812 369.888 452.614 370.112 452.22 370.112C451.804 370.112 451.596 369.888 451.596 369.44V368.656C451.393 369.115 451.078 369.477 450.652 369.744C450.236 370.011 449.745 370.144 449.18 370.144ZM449.388 369.168C450.028 369.168 450.55 368.949 450.956 368.512C451.361 368.064 451.564 367.499 451.564 366.816V366.336H451.068C450.204 366.336 449.521 366.379 449.02 366.464C448.529 366.539 448.182 366.677 447.98 366.88C447.788 367.072 447.692 367.339 447.692 367.68C447.692 368.117 447.841 368.475 448.14 368.752C448.449 369.029 448.865 369.168 449.388 369.168ZM455.856 370.112C455.429 370.112 455.216 369.888 455.216 369.44V362.768C455.216 362.331 455.424 362.112 455.84 362.112C456.267 362.112 456.48 362.331 456.48 362.768V363.552C456.736 363.061 457.099 362.693 457.568 362.448C458.037 362.203 458.565 362.08 459.152 362.08C460.997 362.08 461.92 363.104 461.92 365.152V369.44C461.92 369.888 461.707 370.112 461.28 370.112C460.843 370.112 460.624 369.888 460.624 369.44V365.232C460.624 364.507 460.48 363.979 460.192 363.648C459.915 363.307 459.467 363.136 458.848 363.136C458.133 363.136 457.563 363.36 457.136 363.808C456.72 364.245 456.512 364.832 456.512 365.568V369.44C456.512 369.888 456.293 370.112 455.856 370.112ZM467.606 370.144C466.827 370.144 466.155 369.979 465.59 369.648C465.024 369.307 464.587 368.832 464.278 368.224C463.979 367.605 463.83 366.885 463.83 366.064C463.83 364.827 464.166 363.856 464.838 363.152C465.51 362.437 466.432 362.08 467.606 362.08C467.99 362.08 468.39 362.144 468.806 362.272C469.222 362.389 469.6 362.587 469.942 362.864C470.123 362.992 470.198 363.152 470.166 363.344C470.144 363.536 470.054 363.68 469.894 363.776C469.744 363.872 469.568 363.851 469.366 363.712C469.078 363.499 468.79 363.349 468.502 363.264C468.224 363.179 467.952 363.136 467.686 363.136C466.875 363.136 466.251 363.392 465.814 363.904C465.376 364.405 465.158 365.131 465.158 366.08C465.158 367.008 465.376 367.744 465.814 368.288C466.251 368.821 466.875 369.088 467.686 369.088C467.952 369.088 468.224 369.045 468.502 368.96C468.79 368.875 469.078 368.725 469.366 368.512C469.568 368.373 469.744 368.357 469.894 368.464C470.043 368.56 470.123 368.704 470.134 368.896C470.155 369.088 470.08 369.243 469.91 369.36C469.568 369.637 469.195 369.84 468.79 369.968C468.384 370.085 467.99 370.144 467.606 370.144ZM475.064 370.144C473.837 370.144 472.866 369.787 472.152 369.072C471.437 368.347 471.08 367.365 471.08 366.128C471.08 365.328 471.24 364.624 471.56 364.016C471.88 363.397 472.317 362.923 472.872 362.592C473.437 362.251 474.088 362.08 474.824 362.08C475.88 362.08 476.706 362.421 477.304 363.104C477.901 363.776 478.2 364.704 478.2 365.888C478.2 366.219 478.013 366.384 477.64 366.384H472.344C472.386 367.269 472.642 367.947 473.112 368.416C473.581 368.875 474.232 369.104 475.064 369.104C475.416 369.104 475.773 369.061 476.136 368.976C476.498 368.88 476.85 368.715 477.192 368.48C477.437 368.32 477.64 368.288 477.8 368.384C477.97 368.48 478.056 368.629 478.056 368.832C478.066 369.024 477.96 369.195 477.736 369.344C477.384 369.6 476.962 369.797 476.472 369.936C475.992 370.075 475.522 370.144 475.064 370.144ZM474.856 363.04C474.12 363.04 473.538 363.269 473.112 363.728C472.685 364.187 472.434 364.789 472.36 365.536H477.08C477.048 364.747 476.84 364.133 476.456 363.696C476.082 363.259 475.549 363.04 474.856 363.04ZM482.443 370.144C481.675 370.144 481.089 369.915 480.683 369.456C480.278 368.987 480.075 368.309 480.075 367.424V359.264C480.075 358.827 480.289 358.608 480.715 358.608C481.153 358.608 481.371 358.827 481.371 359.264V367.328C481.371 368.469 481.825 369.04 482.731 369.04C482.827 369.04 482.913 369.035 482.987 369.024C483.062 369.013 483.137 369.008 483.211 369.008C483.329 368.997 483.409 369.024 483.451 369.088C483.505 369.152 483.531 369.28 483.531 369.472C483.531 369.835 483.35 370.043 482.987 370.096C482.902 370.117 482.811 370.128 482.715 370.128C482.619 370.139 482.529 370.144 482.443 370.144Z" fill="#857BAC"/>
<defs>
<filter id="filter0_d_3_3" x="483" y="453" width="473" height="86" filterUnits="userSpaceOnUse" color-interpolation-filters="sRGB">
<feFlood flood-opacity="0" result="BackgroundImageFix"/>
<feColorMatrix in="SourceAlpha" type="matrix" values="0 0 0 0 0 0 0 0 0 0 0 0 0 0 0 0 0 0 127 0" result="hardAlpha"/>
<feMorphology radius="3" operator="dilate" in="SourceAlpha" result="effect1_dropShadow_3_3"/>
<feOffset/>
<feGaussianBlur stdDeviation="2"/>
<feComposite in2="hardAlpha" operator="out"/>
<feColorMatrix type="matrix" values="0 0 0 0 0.950903 0 0 0 0 0.932431 0 0 0 0 0.932431 0 0 0 1 0"/>
<feBlend mode="normal" in2="BackgroundImageFix" result="effect1_dropShadow_3_3"/>
<feBlend mode="normal" in="SourceGraphic" in2="effect1_dropShadow_3_3" result="shape"/>
</filter>
<filter id="filter1_d_3_3" x="483" y="549" width="473" height="86" filterUnits="userSpaceOnUse" color-interpolation-filters="sRGB">
<feFlood flood-opacity="0" result="BackgroundImageFix"/>
<feColorMatrix in="SourceAlpha" type="matrix" values="0 0 0 0 0 0 0 0 0 0 0 0 0 0 0 0 0 0 127 0" result="hardAlpha"/>
<feMorphology radius="3" operator="dilate" in="SourceAlpha" result="effect1_dropShadow_3_3"/>
<feOffset/>
<feGaussianBlur stdDeviation="2"/>
<feComposite in2="hardAlpha" operator="out"/>
<feColorMatrix type="matrix" values="0 0 0 0 0.950903 0 0 0 0 0.932431 0 0 0 0 0.932431 0 0 0 1 0"/>
<feBlend mode="normal" in2="BackgroundImageFix" result="effect1_dropShadow_3_3"/>
<feBlend mode="normal" in="SourceGraphic" in2="effect1_dropShadow_3_3" result="shape"/>
</filter>
</defs>
</svg>
