<svg width="375" height="812" viewBox="0 0 375 812" fill="none" xmlns="http://www.w3.org/2000/svg">
<rect width="375" height="812" fill="white"/>
<g clip-path="url(#clip0_6_52)">
<rect width="375" height="812" fill="#B1B1B1"/>
<rect y="281" width="376" height="308" rx="15" fill="#F2F1F6"/>
<path d="M23.272 312.144C22.1627 312.144 21.2133 311.909 20.424 311.44C19.6347 310.971 19.0267 310.304 18.6 309.44C18.184 308.576 17.976 307.547 17.976 306.352C17.976 305.168 18.184 304.144 18.6 303.28C19.0267 302.416 19.6347 301.749 20.424 301.28C21.2133 300.811 22.1627 300.576 23.272 300.576C23.9333 300.576 24.5627 300.672 25.16 300.864C25.7573 301.056 26.2747 301.328 26.712 301.68C26.8933 301.808 26.9947 301.957 27.016 302.128C27.048 302.299 27.0213 302.453 26.936 302.592C26.8507 302.72 26.728 302.805 26.568 302.848C26.4187 302.88 26.248 302.827 26.056 302.688C25.2987 302.08 24.3813 301.776 23.304 301.776C22.0347 301.776 21.064 302.176 20.392 302.976C19.72 303.776 19.384 304.901 19.384 306.352C19.384 307.813 19.72 308.944 20.392 309.744C21.064 310.544 22.0347 310.944 23.304 310.944C24.3813 310.944 25.3093 310.635 26.088 310.016C26.28 309.888 26.4507 309.84 26.6 309.872C26.76 309.904 26.8773 309.984 26.952 310.112C27.0373 310.24 27.0693 310.384 27.048 310.544C27.0267 310.704 26.936 310.848 26.776 310.976C26.3173 311.36 25.7893 311.653 25.192 311.856C24.5947 312.048 23.9547 312.144 23.272 312.144ZM31.1796 312.144C30.6463 312.144 30.1663 312.043 29.7396 311.84C29.3236 311.627 28.993 311.339 28.7476 310.976C28.5023 310.613 28.3796 310.208 28.3796 309.76C28.3796 309.195 28.5236 308.747 28.8116 308.416C29.1103 308.085 29.5956 307.851 30.2676 307.712C30.9503 307.563 31.8783 307.488 33.0516 307.488H33.5636V306.992C33.5636 306.331 33.425 305.856 33.1476 305.568C32.881 305.269 32.449 305.12 31.8516 305.12C31.4783 305.12 31.0996 305.168 30.7156 305.264C30.3423 305.36 29.953 305.515 29.5476 305.728C29.3663 305.824 29.2116 305.845 29.0836 305.792C28.9663 305.728 28.881 305.632 28.8276 305.504C28.785 305.365 28.785 305.227 28.8276 305.088C28.881 304.939 28.9876 304.827 29.1476 304.752C29.6063 304.517 30.065 304.347 30.5236 304.24C30.993 304.133 31.4356 304.08 31.8516 304.08C32.8543 304.08 33.5956 304.325 34.0756 304.816C34.5663 305.307 34.8116 306.069 34.8116 307.104V311.44C34.8116 311.888 34.6143 312.112 34.2196 312.112C33.8036 312.112 33.5956 311.888 33.5956 311.44V310.656C33.393 311.115 33.0783 311.477 32.6516 311.744C32.2356 312.011 31.745 312.144 31.1796 312.144ZM31.3876 311.168C32.0276 311.168 32.5503 310.949 32.9556 310.512C33.361 310.064 33.5636 309.499 33.5636 308.816V308.336H33.0676C32.2036 308.336 31.521 308.379 31.0196 308.464C30.529 308.539 30.1823 308.677 29.9796 308.88C29.7876 309.072 29.6916 309.339 29.6916 309.68C29.6916 310.117 29.841 310.475 30.1396 310.752C30.449 311.029 30.865 311.168 31.3876 311.168ZM37.856 312.112C37.4293 312.112 37.216 311.888 37.216 311.44V304.768C37.216 304.331 37.424 304.112 37.84 304.112C38.2667 304.112 38.48 304.331 38.48 304.768V305.552C38.736 305.061 39.0987 304.693 39.568 304.448C40.0373 304.203 40.5653 304.08 41.152 304.08C42.9973 304.08 43.92 305.104 43.92 307.152V311.44C43.92 311.888 43.7067 312.112 43.28 312.112C42.8427 312.112 42.624 311.888 42.624 311.44V307.232C42.624 306.507 42.48 305.979 42.192 305.648C41.9147 305.307 41.4667 305.136 40.848 305.136C40.1333 305.136 39.5627 305.36 39.136 305.808C38.72 306.245 38.512 306.832 38.512 307.568V311.44C38.512 311.888 38.2933 312.112 37.856 312.112ZM49.6058 312.144C48.8271 312.144 48.1551 311.979 47.5898 311.648C47.0244 311.307 46.5871 310.832 46.2778 310.224C45.9791 309.605 45.8298 308.885 45.8298 308.064C45.8298 306.827 46.1658 305.856 46.8378 305.152C47.5098 304.437 48.4324 304.08 49.6058 304.08C49.9898 304.08 50.3898 304.144 50.8058 304.272C51.2218 304.389 51.6004 304.587 51.9418 304.864C52.1231 304.992 52.1978 305.152 52.1658 305.344C52.1444 305.536 52.0538 305.68 51.8938 305.776C51.7444 305.872 51.5684 305.851 51.3658 305.712C51.0778 305.499 50.7898 305.349 50.5018 305.264C50.2244 305.179 49.9524 305.136 49.6858 305.136C48.8751 305.136 48.2511 305.392 47.8138 305.904C47.3764 306.405 47.1578 307.131 47.1578 308.08C47.1578 309.008 47.3764 309.744 47.8138 310.288C48.2511 310.821 48.8751 311.088 49.6858 311.088C49.9524 311.088 50.2244 311.045 50.5018 310.96C50.7898 310.875 51.0778 310.725 51.3658 310.512C51.5684 310.373 51.7444 310.357 51.8938 310.464C52.0431 310.56 52.1231 310.704 52.1338 310.896C52.1551 311.088 52.0804 311.243 51.9098 311.36C51.5684 311.637 51.1951 311.84 50.7898 311.968C50.3844 312.085 49.9898 312.144 49.6058 312.144ZM57.0638 312.144C55.8371 312.144 54.8664 311.787 54.1518 311.072C53.4371 310.347 53.0798 309.365 53.0798 308.128C53.0798 307.328 53.2398 306.624 53.5598 306.016C53.8798 305.397 54.3171 304.923 54.8718 304.592C55.4371 304.251 56.0878 304.08 56.8238 304.08C57.8798 304.08 58.7064 304.421 59.3038 305.104C59.9011 305.776 60.1998 306.704 60.1998 307.888C60.1998 308.219 60.0131 308.384 59.6398 308.384H54.3438C54.3864 309.269 54.6424 309.947 55.1118 310.416C55.5811 310.875 56.2318 311.104 57.0638 311.104C57.4158 311.104 57.7731 311.061 58.1358 310.976C58.4984 310.88 58.8504 310.715 59.1918 310.48C59.4371 310.32 59.6398 310.288 59.7998 310.384C59.9704 310.48 60.0558 310.629 60.0558 310.832C60.0664 311.024 59.9598 311.195 59.7358 311.344C59.3838 311.6 58.9624 311.797 58.4718 311.936C57.9918 312.075 57.5224 312.144 57.0638 312.144ZM56.8558 305.04C56.1198 305.04 55.5384 305.269 55.1118 305.728C54.6851 306.187 54.4344 306.789 54.3598 307.536H59.0798C59.0478 306.747 58.8398 306.133 58.4558 305.696C58.0824 305.259 57.5491 305.04 56.8558 305.04ZM64.4434 312.144C63.6754 312.144 63.0887 311.915 62.6834 311.456C62.278 310.987 62.0754 310.309 62.0754 309.424V301.264C62.0754 300.827 62.2887 300.608 62.7154 300.608C63.1527 300.608 63.3714 300.827 63.3714 301.264V309.328C63.3714 310.469 63.8247 311.04 64.7314 311.04C64.8274 311.04 64.9127 311.035 64.9874 311.024C65.062 311.013 65.1367 311.008 65.2114 311.008C65.3287 310.997 65.4087 311.024 65.4514 311.088C65.5047 311.152 65.5314 311.28 65.5314 311.472C65.5314 311.835 65.35 312.043 64.9874 312.096C64.902 312.117 64.8114 312.128 64.7154 312.128C64.6194 312.139 64.5287 312.144 64.4434 312.144Z" fill="#857BAC"/>
<path d="M45.7091 376.249C44.382 376.249 43.1286 376.092 41.949 375.779C40.7878 375.447 39.7832 374.968 38.9354 374.341C38.6404 374.138 38.4653 373.899 38.41 373.622C38.3548 373.346 38.3824 373.088 38.493 372.848C38.622 372.609 38.8063 372.452 39.046 372.378C39.2856 372.286 39.562 372.341 39.8754 372.544C40.7048 373.152 41.5896 373.585 42.5296 373.843C43.4696 374.102 44.5295 374.231 45.7091 374.231C47.368 374.231 48.5937 373.926 49.3863 373.318C50.1973 372.691 50.6028 371.871 50.6028 370.857C50.6028 370.046 50.3079 369.401 49.7181 368.922C49.1467 368.443 48.179 368.065 46.815 367.789L43.9396 367.208C42.207 366.839 40.9076 366.24 40.0413 365.411C39.1934 364.563 38.7695 363.439 38.7695 362.038C38.7695 360.877 39.0644 359.863 39.6542 358.996C40.2625 358.13 41.1011 357.457 42.1702 356.978C43.2392 356.499 44.4742 356.259 45.875 356.259C47.0362 356.259 48.1145 356.425 49.1098 356.757C50.1236 357.07 51.036 357.55 51.847 358.195C52.105 358.397 52.2525 358.637 52.2893 358.914C52.3446 359.172 52.3078 359.411 52.1788 359.632C52.0497 359.854 51.8654 360.001 51.6258 360.075C51.3862 360.13 51.1005 360.056 50.7687 359.854C50.0314 359.282 49.2573 358.877 48.4463 358.637C47.6537 358.397 46.7874 358.278 45.8474 358.278C44.3912 358.278 43.23 358.619 42.3637 359.301C41.4974 359.964 41.0643 360.849 41.0643 361.955C41.0643 362.84 41.3315 363.54 41.866 364.056C42.419 364.572 43.313 364.95 44.5479 365.19L47.4233 365.798C49.2849 366.185 50.6581 366.775 51.5428 367.567C52.446 368.342 52.8976 369.401 52.8976 370.747C52.8976 371.834 52.6027 372.793 52.0129 373.622C51.4415 374.452 50.612 375.097 49.5245 375.558C48.4555 376.018 47.1837 376.249 45.7091 376.249ZM61.4486 376.249C59.8635 376.249 58.6746 375.834 57.882 375.005C57.0894 374.157 56.6932 372.94 56.6932 371.355V364.305H54.8407C54.1956 364.305 53.8731 364.01 53.8731 363.42C53.8731 362.849 54.1956 362.563 54.8407 362.563H56.6932V359.384C56.6932 358.628 57.071 358.25 57.8267 358.25C58.564 358.25 58.9326 358.628 58.9326 359.384V362.563H62.4163C63.0614 362.563 63.384 362.849 63.384 363.42C63.384 364.01 63.0614 364.305 62.4163 364.305H58.9326V371.134C58.9326 372.185 59.1538 372.986 59.5962 373.539C60.0386 374.074 60.7574 374.341 61.7527 374.341C62.1029 374.341 62.3979 374.304 62.6375 374.231C62.8771 374.157 63.0891 374.12 63.2734 374.12C63.4393 374.102 63.5775 374.157 63.6881 374.286C63.7987 374.415 63.854 374.636 63.854 374.949C63.854 375.171 63.8079 375.373 63.7157 375.558C63.642 375.742 63.5038 375.871 63.301 375.945C63.0798 376.018 62.7849 376.083 62.4163 376.138C62.0661 376.212 61.7435 376.249 61.4486 376.249ZM69.9534 376.249C69.0318 376.249 68.2024 376.074 67.4651 375.724C66.7462 375.355 66.1748 374.857 65.7509 374.231C65.327 373.604 65.115 372.903 65.115 372.129C65.115 371.152 65.3638 370.378 65.8615 369.807C66.3776 369.235 67.2162 368.83 68.3775 368.59C69.5571 368.332 71.1607 368.203 73.1882 368.203H74.0729V367.346C74.0729 366.203 73.8333 365.383 73.3541 364.886C72.8933 364.369 72.1468 364.111 71.1146 364.111C70.4695 364.111 69.8152 364.194 69.1516 364.36C68.5065 364.526 67.8337 364.793 67.1333 365.162C66.82 365.328 66.5527 365.365 66.3315 365.273C66.1288 365.162 65.9813 364.996 65.8891 364.775C65.8154 364.535 65.8154 364.296 65.8891 364.056C65.9813 363.798 66.1656 363.604 66.4421 363.475C67.2347 363.07 68.0273 362.775 68.8198 362.591C69.6308 362.406 70.3958 362.314 71.1146 362.314C72.8472 362.314 74.1282 362.738 74.9577 363.586C75.8056 364.434 76.2295 365.752 76.2295 367.54V375.032C76.2295 375.806 75.8885 376.194 75.2065 376.194C74.4877 376.194 74.1282 375.806 74.1282 375.032V373.678C73.778 374.47 73.2343 375.097 72.497 375.558C71.7782 376.018 70.9303 376.249 69.9534 376.249ZM70.3128 374.562C71.4187 374.562 72.3219 374.184 73.0223 373.429C73.7227 372.655 74.0729 371.678 74.0729 370.498V369.669H73.2159C71.7229 369.669 70.5432 369.742 69.6769 369.89C68.829 370.019 68.23 370.258 67.8798 370.609C67.548 370.94 67.3821 371.401 67.3821 371.991C67.3821 372.747 67.6402 373.364 68.1563 373.843C68.6908 374.323 69.4096 374.562 70.3128 374.562ZM83.2352 381.17C82.8113 381.17 82.5256 381.004 82.3781 380.673C82.2307 380.359 82.2399 380 82.4058 379.594L84.0923 375.779L79.0051 363.945C78.8208 363.522 78.8116 363.153 78.9774 362.84C79.1618 362.526 79.5028 362.37 80.0004 362.37C80.5165 362.37 80.8944 362.664 81.134 363.254L85.3088 373.456L89.5113 363.254C89.6588 362.922 89.8155 362.692 89.9813 362.563C90.1472 362.434 90.3869 362.37 90.7002 362.37C91.1241 362.37 91.4098 362.526 91.5573 362.84C91.7047 363.153 91.6955 363.512 91.5296 363.918L84.4517 380.285C84.3043 380.617 84.1384 380.848 83.9541 380.977C83.7882 381.106 83.5486 381.17 83.2352 381.17ZM102.685 359.328C101.708 359.328 101.22 358.867 101.22 357.946C101.22 357.043 101.708 356.591 102.685 356.591C103.662 356.591 104.151 357.043 104.151 357.946C104.151 358.867 103.662 359.328 102.685 359.328ZM102.685 376.138C101.948 376.138 101.579 375.733 101.579 374.922V363.614C101.579 362.821 101.948 362.425 102.685 362.425C103.441 362.425 103.819 362.821 103.819 363.614V374.922C103.819 375.733 103.441 376.138 102.685 376.138ZM109.111 376.194C108.374 376.194 108.005 375.806 108.005 375.032V363.503C108.005 362.747 108.365 362.37 109.084 362.37C109.821 362.37 110.189 362.747 110.189 363.503V364.858C110.632 364.01 111.258 363.374 112.07 362.95C112.881 362.526 113.793 362.314 114.807 362.314C117.995 362.314 119.59 364.084 119.59 367.623V375.032C119.59 375.806 119.221 376.194 118.484 376.194C117.728 376.194 117.35 375.806 117.35 375.032V367.761C117.35 366.508 117.101 365.595 116.604 365.024C116.125 364.434 115.35 364.139 114.281 364.139C113.046 364.139 112.06 364.526 111.323 365.3C110.604 366.056 110.245 367.07 110.245 368.342V375.032C110.245 375.806 109.867 376.194 109.111 376.194ZM136.239 376.249C134.653 376.249 133.465 375.834 132.672 375.005C131.879 374.157 131.483 372.94 131.483 371.355V364.305H129.631C128.986 364.305 128.663 364.01 128.663 363.42C128.663 362.849 128.986 362.563 129.631 362.563H131.483V359.384C131.483 358.628 131.861 358.25 132.617 358.25C133.354 358.25 133.723 358.628 133.723 359.384V362.563H137.206C137.851 362.563 138.174 362.849 138.174 363.42C138.174 364.01 137.851 364.305 137.206 364.305H133.723V371.134C133.723 372.185 133.944 372.986 134.386 373.539C134.829 374.074 135.547 374.341 136.543 374.341C136.893 374.341 137.188 374.304 137.427 374.231C137.667 374.157 137.879 374.12 138.063 374.12C138.229 374.102 138.368 374.157 138.478 374.286C138.589 374.415 138.644 374.636 138.644 374.949C138.644 375.171 138.598 375.373 138.506 375.558C138.432 375.742 138.294 375.871 138.091 375.945C137.87 376.018 137.575 376.083 137.206 376.138C136.856 376.212 136.534 376.249 136.239 376.249ZM141.781 376.194C141.044 376.194 140.675 375.806 140.675 375.032V357.448C140.675 356.692 141.044 356.315 141.781 356.315C142.537 356.315 142.915 356.692 142.915 357.448V364.775C143.357 363.964 143.975 363.356 144.767 362.95C145.578 362.526 146.481 362.314 147.477 362.314C150.665 362.314 152.26 364.084 152.26 367.623V375.032C152.26 375.806 151.891 376.194 151.154 376.194C150.398 376.194 150.02 375.806 150.02 375.032V367.761C150.02 366.508 149.771 365.595 149.274 365.024C148.795 364.434 148.02 364.139 146.951 364.139C145.716 364.139 144.73 364.526 143.993 365.3C143.274 366.056 142.915 367.07 142.915 368.342V375.032C142.915 375.806 142.537 376.194 141.781 376.194ZM162.444 376.249C160.324 376.249 158.647 375.631 157.412 374.396C156.177 373.143 155.56 371.447 155.56 369.309C155.56 367.927 155.836 366.71 156.389 365.66C156.942 364.591 157.698 363.77 158.656 363.199C159.633 362.609 160.758 362.314 162.029 362.314C163.854 362.314 165.283 362.904 166.315 364.084C167.347 365.245 167.863 366.849 167.863 368.894C167.863 369.466 167.541 369.752 166.895 369.752H157.744C157.818 371.281 158.26 372.452 159.071 373.263C159.882 374.055 161.006 374.452 162.444 374.452C163.052 374.452 163.67 374.378 164.297 374.231C164.923 374.065 165.532 373.779 166.121 373.373C166.545 373.097 166.895 373.042 167.172 373.208C167.467 373.373 167.614 373.631 167.614 373.982C167.633 374.313 167.448 374.608 167.061 374.866C166.453 375.309 165.725 375.65 164.877 375.889C164.048 376.129 163.237 376.249 162.444 376.249ZM162.085 363.973C160.813 363.973 159.808 364.369 159.071 365.162C158.334 365.955 157.901 366.996 157.772 368.286H165.928C165.873 366.922 165.513 365.862 164.85 365.107C164.204 364.351 163.283 363.973 162.085 363.973ZM179.698 376C178.923 376 178.536 375.604 178.536 374.811V357.559C178.536 356.766 178.914 356.37 179.67 356.37C180.426 356.37 180.804 356.766 180.804 357.559V374.009H189.872C190.572 374.009 190.923 374.341 190.923 375.005C190.923 375.668 190.572 376 189.872 376H179.698ZM198.694 376.249C197.385 376.249 196.252 375.963 195.293 375.392C194.335 374.82 193.588 374.019 193.054 372.986C192.538 371.936 192.28 370.701 192.28 369.282C192.28 367.862 192.538 366.637 193.054 365.604C193.588 364.554 194.335 363.743 195.293 363.171C196.252 362.6 197.385 362.314 198.694 362.314C199.984 362.314 201.109 362.6 202.067 363.171C203.044 363.743 203.791 364.554 204.307 365.604C204.841 366.637 205.108 367.862 205.108 369.282C205.108 370.701 204.841 371.936 204.307 372.986C203.791 374.019 203.044 374.82 202.067 375.392C201.109 375.963 199.984 376.249 198.694 376.249ZM198.694 374.452C199.948 374.452 200.952 374.009 201.708 373.125C202.463 372.221 202.841 370.94 202.841 369.282C202.841 367.604 202.463 366.323 201.708 365.438C200.952 364.554 199.948 364.111 198.694 364.111C197.422 364.111 196.409 364.554 195.653 365.438C194.916 366.323 194.547 367.604 194.547 369.282C194.547 370.94 194.916 372.221 195.653 373.125C196.409 374.009 197.422 374.452 198.694 374.452ZM214.057 376.249C212.748 376.249 211.615 375.963 210.656 375.392C209.698 374.82 208.951 374.019 208.417 372.986C207.901 371.936 207.643 370.701 207.643 369.282C207.643 367.862 207.901 366.637 208.417 365.604C208.951 364.554 209.698 363.743 210.656 363.171C211.615 362.6 212.748 362.314 214.057 362.314C215.347 362.314 216.472 362.6 217.43 363.171C218.407 363.743 219.154 364.554 219.67 365.604C220.204 366.637 220.471 367.862 220.471 369.282C220.471 370.701 220.204 371.936 219.67 372.986C219.154 374.019 218.407 374.82 217.43 375.392C216.472 375.963 215.347 376.249 214.057 376.249ZM214.057 374.452C215.311 374.452 216.315 374.009 217.071 373.125C217.826 372.221 218.204 370.94 218.204 369.282C218.204 367.604 217.826 366.323 217.071 365.438C216.315 364.554 215.311 364.111 214.057 364.111C212.785 364.111 211.772 364.554 211.016 365.438C210.279 366.323 209.91 367.604 209.91 369.282C209.91 370.94 210.279 372.221 211.016 373.125C211.772 374.009 212.785 374.452 214.057 374.452ZM224.941 381.17C224.204 381.17 223.835 380.792 223.835 380.037V363.503C223.835 362.747 224.195 362.37 224.914 362.37C225.669 362.37 226.047 362.747 226.047 363.503V364.941C226.434 364.13 227.033 363.494 227.844 363.033C228.655 362.554 229.586 362.314 230.637 362.314C231.835 362.314 232.876 362.6 233.761 363.171C234.664 363.724 235.355 364.526 235.834 365.577C236.332 366.609 236.581 367.844 236.581 369.282C236.581 370.701 236.332 371.936 235.834 372.986C235.355 374.019 234.664 374.82 233.761 375.392C232.876 375.963 231.835 376.249 230.637 376.249C229.604 376.249 228.683 376.018 227.872 375.558C227.061 375.097 226.462 374.461 226.075 373.65V380.037C226.075 380.792 225.697 381.17 224.941 381.17ZM230.167 374.452C231.42 374.452 232.425 374.009 233.18 373.125C233.936 372.221 234.314 370.94 234.314 369.282C234.314 367.604 233.936 366.323 233.18 365.438C232.425 364.554 231.42 364.111 230.167 364.111C228.913 364.111 227.909 364.554 227.153 365.438C226.397 366.323 226.019 367.604 226.019 369.282C226.019 370.94 226.397 372.221 227.153 373.125C227.909 374.009 228.913 374.452 230.167 374.452ZM240.412 376.111C239.951 376.111 239.582 375.972 239.306 375.696C239.029 375.401 238.891 375.032 238.891 374.59C238.891 374.148 239.029 373.788 239.306 373.512C239.582 373.217 239.951 373.069 240.412 373.069C240.872 373.069 241.232 373.217 241.49 373.512C241.766 373.788 241.905 374.148 241.905 374.59C241.905 375.032 241.766 375.401 241.49 375.696C241.232 375.972 240.872 376.111 240.412 376.111Z" fill="black"/>
<g filter="url(#filter0_d_6_52)">
<rect x="37" y="414" width="302" height="56" rx="8" fill="white"/>
<path d="M56.72 448.144C55.4933 448.144 54.5227 447.787 53.808 447.072C53.0933 446.347 52.736 445.365 52.736 444.128C52.736 443.328 52.896 442.624 53.216 442.016C53.536 441.397 53.9733 440.923 54.528 440.592C55.0933 440.251 55.744 440.08 56.48 440.08C57.536 440.08 58.3627 440.421 58.96 441.104C59.5573 441.776 59.856 442.704 59.856 443.888C59.856 444.219 59.6693 444.384 59.296 444.384H54C54.0427 445.269 54.2987 445.947 54.768 446.416C55.2373 446.875 55.888 447.104 56.72 447.104C57.072 447.104 57.4293 447.061 57.792 446.976C58.1547 446.88 58.5067 446.715 58.848 446.48C59.0933 446.32 59.296 446.288 59.456 446.384C59.6267 446.48 59.712 446.629 59.712 446.832C59.7227 447.024 59.616 447.195 59.392 447.344C59.04 447.6 58.6187 447.797 58.128 447.936C57.648 448.075 57.1787 448.144 56.72 448.144ZM56.512 441.04C55.776 441.04 55.1947 441.269 54.768 441.728C54.3413 442.187 54.0907 442.789 54.016 443.536H58.736C58.704 442.747 58.496 442.133 58.112 441.696C57.7387 441.259 57.2053 441.04 56.512 441.04ZM61.7011 448.096C61.4878 448.096 61.3278 448.005 61.2211 447.824C61.1145 447.632 61.1625 447.413 61.3651 447.168L63.9091 443.984L61.5411 441.04C61.3385 440.795 61.2905 440.581 61.3971 440.4C61.5038 440.208 61.6638 440.112 61.8771 440.112C62.0478 440.112 62.1865 440.144 62.2931 440.208C62.3998 440.261 62.5011 440.352 62.5971 440.48L64.6611 443.088L66.7411 440.48C66.8371 440.352 66.9385 440.261 67.0451 440.208C67.1518 440.144 67.2851 440.112 67.4451 440.112C67.6691 440.112 67.8291 440.208 67.9251 440.4C68.0318 440.581 67.9838 440.8 67.7811 441.056L65.4131 443.984L67.9731 447.168C68.1651 447.413 68.2078 447.632 68.1011 447.824C67.9945 448.005 67.8291 448.096 67.6051 448.096C67.3171 448.096 67.0771 447.973 66.8851 447.728L64.6451 444.912L62.4211 447.728C62.3251 447.845 62.2238 447.936 62.1171 448C62.0105 448.064 61.8718 448.096 61.7011 448.096ZM72.4609 448.144C71.9275 448.144 71.4475 448.043 71.0209 447.84C70.6049 447.627 70.2742 447.339 70.0289 446.976C69.7835 446.613 69.6609 446.208 69.6609 445.76C69.6609 445.195 69.8049 444.747 70.0929 444.416C70.3915 444.085 70.8769 443.851 71.5489 443.712C72.2315 443.563 73.1595 443.488 74.3329 443.488H74.8449V442.992C74.8449 442.331 74.7062 441.856 74.4289 441.568C74.1622 441.269 73.7302 441.12 73.1329 441.12C72.7595 441.12 72.3809 441.168 71.9969 441.264C71.6235 441.36 71.2342 441.515 70.8289 441.728C70.6475 441.824 70.4929 441.845 70.3649 441.792C70.2475 441.728 70.1622 441.632 70.1089 441.504C70.0662 441.365 70.0662 441.227 70.1089 441.088C70.1622 440.939 70.2689 440.827 70.4289 440.752C70.8875 440.517 71.3462 440.347 71.8049 440.24C72.2742 440.133 72.7169 440.08 73.1329 440.08C74.1355 440.08 74.8769 440.325 75.3569 440.816C75.8475 441.307 76.0929 442.069 76.0929 443.104V447.44C76.0929 447.888 75.8955 448.112 75.5009 448.112C75.0849 448.112 74.8769 447.888 74.8769 447.44V446.656C74.6742 447.115 74.3595 447.477 73.9329 447.744C73.5169 448.011 73.0262 448.144 72.4609 448.144ZM72.6689 447.168C73.3089 447.168 73.8315 446.949 74.2369 446.512C74.6422 446.064 74.8449 445.499 74.8449 444.816V444.336H74.3489C73.4849 444.336 72.8022 444.379 72.3009 444.464C71.8102 444.539 71.4635 444.677 71.2609 444.88C71.0689 445.072 70.9729 445.339 70.9729 445.68C70.9729 446.117 71.1222 446.475 71.4209 446.752C71.7302 447.029 72.1462 447.168 72.6689 447.168ZM79.1693 448.112C78.7426 448.112 78.5293 447.888 78.5293 447.44V440.768C78.5293 440.331 78.7373 440.112 79.1533 440.112C79.5799 440.112 79.7933 440.331 79.7933 440.768V441.536C80.0279 441.067 80.3533 440.709 80.7693 440.464C81.1853 440.208 81.6706 440.08 82.2253 440.08C83.4413 440.08 84.2199 440.608 84.5613 441.664C84.7959 441.173 85.1426 440.789 85.6013 440.512C86.0599 440.224 86.5879 440.08 87.1853 440.08C88.9133 440.08 89.7773 441.104 89.7773 443.152V447.44C89.7773 447.888 89.5586 448.112 89.1213 448.112C88.6946 448.112 88.4813 447.888 88.4813 447.44V443.216C88.4813 442.501 88.3533 441.979 88.0973 441.648C87.8519 441.307 87.4413 441.136 86.8653 441.136C86.2359 441.136 85.7346 441.36 85.3612 441.808C84.9879 442.256 84.8013 442.853 84.8013 443.6V447.44C84.8013 447.888 84.5826 448.112 84.1453 448.112C83.7186 448.112 83.5053 447.888 83.5053 447.44V443.216C83.5053 442.501 83.3773 441.979 83.1213 441.648C82.8759 441.307 82.4653 441.136 81.8893 441.136C81.2493 441.136 80.7426 441.36 80.3693 441.808C80.0066 442.256 79.8253 442.853 79.8253 443.6V447.44C79.8253 447.888 79.6066 448.112 79.1693 448.112ZM92.8404 450.992C92.4137 450.992 92.2004 450.773 92.2004 450.336V440.768C92.2004 440.331 92.4084 440.112 92.8244 440.112C93.2617 440.112 93.4804 440.331 93.4804 440.768V441.6C93.7044 441.131 94.051 440.763 94.5204 440.496C94.9897 440.219 95.5284 440.08 96.1364 440.08C96.8297 440.08 97.4324 440.245 97.9444 440.576C98.467 440.896 98.867 441.36 99.1444 441.968C99.4324 442.565 99.5764 443.28 99.5764 444.112C99.5764 444.933 99.4324 445.648 99.1444 446.256C98.867 446.853 98.467 447.317 97.9444 447.648C97.4324 447.979 96.8297 448.144 96.1364 448.144C95.539 448.144 95.0057 448.011 94.5364 447.744C94.067 447.477 93.7204 447.109 93.4964 446.64V450.336C93.4964 450.773 93.2777 450.992 92.8404 450.992ZM95.8644 447.104C96.5897 447.104 97.171 446.848 97.6084 446.336C98.0457 445.813 98.2644 445.072 98.2644 444.112C98.2644 443.141 98.0457 442.4 97.6084 441.888C97.171 441.376 96.5897 441.12 95.8644 441.12C95.139 441.12 94.5577 441.376 94.1204 441.888C93.683 442.4 93.4644 443.141 93.4644 444.112C93.4644 445.072 93.683 445.813 94.1204 446.336C94.5577 446.848 95.139 447.104 95.8644 447.104ZM103.897 448.144C103.129 448.144 102.542 447.915 102.137 447.456C101.731 446.987 101.529 446.309 101.529 445.424V437.264C101.529 436.827 101.742 436.608 102.169 436.608C102.606 436.608 102.825 436.827 102.825 437.264V445.328C102.825 446.469 103.278 447.04 104.185 447.04C104.281 447.04 104.366 447.035 104.441 447.024C104.515 447.013 104.59 447.008 104.665 447.008C104.782 446.997 104.862 447.024 104.905 447.088C104.958 447.152 104.985 447.28 104.985 447.472C104.985 447.835 104.803 448.043 104.441 448.096C104.355 448.117 104.265 448.128 104.169 448.128C104.073 448.139 103.982 448.144 103.897 448.144ZM109.689 448.144C108.462 448.144 107.491 447.787 106.777 447.072C106.062 446.347 105.705 445.365 105.705 444.128C105.705 443.328 105.865 442.624 106.185 442.016C106.505 441.397 106.942 440.923 107.497 440.592C108.062 440.251 108.713 440.08 109.449 440.08C110.505 440.08 111.331 440.421 111.929 441.104C112.526 441.776 112.825 442.704 112.825 443.888C112.825 444.219 112.638 444.384 112.265 444.384H106.969C107.011 445.269 107.267 445.947 107.737 446.416C108.206 446.875 108.857 447.104 109.689 447.104C110.041 447.104 110.398 447.061 110.761 446.976C111.123 446.88 111.475 446.715 111.817 446.48C112.062 446.32 112.265 446.288 112.425 446.384C112.595 446.48 112.681 446.629 112.681 446.832C112.691 447.024 112.585 447.195 112.361 447.344C112.009 447.6 111.587 447.797 111.097 447.936C110.617 448.075 110.147 448.144 109.689 448.144ZM109.481 441.04C108.745 441.04 108.163 441.269 107.737 441.728C107.31 442.187 107.059 442.789 106.985 443.536H111.705C111.673 442.747 111.465 442.133 111.081 441.696C110.707 441.259 110.174 441.04 109.481 441.04ZM121.244 450.608C119.89 450.608 118.7 450.32 117.676 449.744C116.663 449.179 115.874 448.373 115.308 447.328C114.743 446.283 114.46 445.051 114.46 443.632C114.46 442.587 114.626 441.632 114.956 440.768C115.298 439.904 115.778 439.163 116.396 438.544C117.026 437.915 117.767 437.429 118.62 437.088C119.474 436.747 120.418 436.576 121.452 436.576C122.69 436.576 123.772 436.827 124.7 437.328C125.628 437.819 126.348 438.507 126.86 439.392C127.383 440.277 127.644 441.312 127.644 442.496C127.644 443.424 127.516 444.229 127.26 444.912C127.015 445.595 126.663 446.123 126.204 446.496C125.746 446.869 125.212 447.056 124.604 447.056C124.082 447.056 123.66 446.933 123.34 446.688C123.02 446.432 122.828 446.08 122.764 445.632C122.466 446.101 122.103 446.459 121.676 446.704C121.26 446.939 120.818 447.056 120.348 447.056C119.527 447.056 118.887 446.8 118.428 446.288C117.98 445.765 117.756 445.051 117.756 444.144C117.756 443.365 117.906 442.672 118.204 442.064C118.503 441.445 118.914 440.96 119.436 440.608C119.959 440.256 120.551 440.08 121.212 440.08C122.236 440.08 122.914 440.496 123.244 441.328L123.356 440.656C123.41 440.315 123.607 440.144 123.948 440.144C124.322 440.144 124.476 440.341 124.412 440.736L123.772 444.368C123.73 444.645 123.708 444.896 123.708 445.12C123.708 445.835 124.028 446.192 124.668 446.192C125.276 446.192 125.772 445.856 126.156 445.184C126.54 444.501 126.732 443.605 126.732 442.496C126.732 441.483 126.508 440.603 126.06 439.856C125.623 439.109 125.01 438.528 124.22 438.112C123.431 437.696 122.503 437.488 121.436 437.488C120.252 437.488 119.212 437.744 118.316 438.256C117.42 438.768 116.722 439.488 116.22 440.416C115.719 441.333 115.468 442.405 115.468 443.632C115.468 444.901 115.703 445.989 116.172 446.896C116.642 447.803 117.308 448.496 118.172 448.976C119.036 449.467 120.06 449.712 121.244 449.712C122.023 449.712 122.727 449.6 123.356 449.376C123.996 449.152 124.54 448.848 124.988 448.464C125.18 448.315 125.356 448.272 125.516 448.336C125.676 448.4 125.772 448.517 125.804 448.688C125.836 448.869 125.756 449.04 125.564 449.2C125.074 449.627 124.455 449.968 123.708 450.224C122.972 450.48 122.151 450.608 121.244 450.608ZM120.492 446.128C120.972 446.128 121.394 445.989 121.756 445.712C122.13 445.424 122.423 445.029 122.636 444.528C122.85 444.027 122.956 443.451 122.956 442.8C122.956 441.605 122.412 441.008 121.324 441.008C120.855 441.008 120.434 441.147 120.06 441.424C119.687 441.691 119.388 442.059 119.164 442.528C118.951 442.997 118.844 443.536 118.844 444.144C118.844 444.784 118.988 445.275 119.276 445.616C119.564 445.957 119.97 446.128 120.492 446.128ZM130.513 448.112C130.086 448.112 129.873 447.888 129.873 447.44V440.768C129.873 440.331 130.081 440.112 130.497 440.112C130.924 440.112 131.137 440.331 131.137 440.768V441.536C131.372 441.067 131.697 440.709 132.113 440.464C132.529 440.208 133.014 440.08 133.569 440.08C134.785 440.08 135.564 440.608 135.905 441.664C136.14 441.173 136.486 440.789 136.945 440.512C137.404 440.224 137.932 440.08 138.529 440.08C140.257 440.08 141.121 441.104 141.121 443.152V447.44C141.121 447.888 140.902 448.112 140.465 448.112C140.038 448.112 139.825 447.888 139.825 447.44V443.216C139.825 442.501 139.697 441.979 139.441 441.648C139.196 441.307 138.785 441.136 138.209 441.136C137.58 441.136 137.078 441.36 136.705 441.808C136.332 442.256 136.145 442.853 136.145 443.6V447.44C136.145 447.888 135.926 448.112 135.489 448.112C135.062 448.112 134.849 447.888 134.849 447.44V443.216C134.849 442.501 134.721 441.979 134.465 441.648C134.22 441.307 133.809 441.136 133.233 441.136C132.593 441.136 132.086 441.36 131.713 441.808C131.35 442.256 131.169 442.853 131.169 443.6V447.44C131.169 447.888 130.95 448.112 130.513 448.112ZM145.992 448.144C145.459 448.144 144.979 448.043 144.552 447.84C144.136 447.627 143.805 447.339 143.56 446.976C143.315 446.613 143.192 446.208 143.192 445.76C143.192 445.195 143.336 444.747 143.624 444.416C143.923 444.085 144.408 443.851 145.08 443.712C145.763 443.563 146.691 443.488 147.864 443.488H148.376V442.992C148.376 442.331 148.237 441.856 147.96 441.568C147.693 441.269 147.261 441.12 146.664 441.12C146.291 441.12 145.912 441.168 145.528 441.264C145.155 441.36 144.765 441.515 144.36 441.728C144.179 441.824 144.024 441.845 143.896 441.792C143.779 441.728 143.693 441.632 143.64 441.504C143.597 441.365 143.597 441.227 143.64 441.088C143.693 440.939 143.8 440.827 143.96 440.752C144.419 440.517 144.877 440.347 145.336 440.24C145.805 440.133 146.248 440.08 146.664 440.08C147.667 440.08 148.408 440.325 148.888 440.816C149.379 441.307 149.624 442.069 149.624 443.104V447.44C149.624 447.888 149.427 448.112 149.032 448.112C148.616 448.112 148.408 447.888 148.408 447.44V446.656C148.205 447.115 147.891 447.477 147.464 447.744C147.048 448.011 146.557 448.144 145.992 448.144ZM146.2 447.168C146.84 447.168 147.363 446.949 147.768 446.512C148.173 446.064 148.376 445.499 148.376 444.816V444.336H147.88C147.016 444.336 146.333 444.379 145.832 444.464C145.341 444.539 144.995 444.677 144.792 444.88C144.6 445.072 144.504 445.339 144.504 445.68C144.504 446.117 144.653 446.475 144.952 446.752C145.261 447.029 145.677 447.168 146.2 447.168ZM152.669 438.352C152.103 438.352 151.821 438.085 151.821 437.552C151.821 437.029 152.103 436.768 152.669 436.768C153.234 436.768 153.517 437.029 153.517 437.552C153.517 438.085 153.234 438.352 152.669 438.352ZM152.669 448.08C152.242 448.08 152.029 447.845 152.029 447.376V440.832C152.029 440.373 152.242 440.144 152.669 440.144C153.106 440.144 153.325 440.373 153.325 440.832V447.376C153.325 447.845 153.106 448.08 152.669 448.08ZM158.115 448.144C157.347 448.144 156.761 447.915 156.355 447.456C155.95 446.987 155.747 446.309 155.747 445.424V437.264C155.747 436.827 155.961 436.608 156.387 436.608C156.825 436.608 157.043 436.827 157.043 437.264V445.328C157.043 446.469 157.497 447.04 158.403 447.04C158.499 447.04 158.585 447.035 158.659 447.024C158.734 447.013 158.809 447.008 158.883 447.008C159.001 446.997 159.081 447.024 159.123 447.088C159.177 447.152 159.203 447.28 159.203 447.472C159.203 447.835 159.022 448.043 158.659 448.096C158.574 448.117 158.483 448.128 158.387 448.128C158.291 448.139 158.201 448.144 158.115 448.144ZM161.262 448.064C160.995 448.064 160.782 447.984 160.622 447.824C160.462 447.653 160.382 447.44 160.382 447.184C160.382 446.928 160.462 446.72 160.622 446.56C160.782 446.389 160.995 446.304 161.262 446.304C161.529 446.304 161.737 446.389 161.886 446.56C162.046 446.72 162.126 446.928 162.126 447.184C162.126 447.44 162.046 447.653 161.886 447.824C161.737 447.984 161.529 448.064 161.262 448.064ZM167.215 448.144C166.436 448.144 165.764 447.979 165.199 447.648C164.634 447.307 164.196 446.832 163.887 446.224C163.588 445.605 163.439 444.885 163.439 444.064C163.439 442.827 163.775 441.856 164.447 441.152C165.119 440.437 166.042 440.08 167.215 440.08C167.599 440.08 167.999 440.144 168.415 440.272C168.831 440.389 169.21 440.587 169.551 440.864C169.732 440.992 169.807 441.152 169.775 441.344C169.754 441.536 169.663 441.68 169.503 441.776C169.354 441.872 169.178 441.851 168.975 441.712C168.687 441.499 168.399 441.349 168.111 441.264C167.834 441.179 167.562 441.136 167.295 441.136C166.484 441.136 165.86 441.392 165.423 441.904C164.986 442.405 164.767 443.131 164.767 444.08C164.767 445.008 164.986 445.744 165.423 446.288C165.86 446.821 166.484 447.088 167.295 447.088C167.562 447.088 167.834 447.045 168.111 446.96C168.399 446.875 168.687 446.725 168.975 446.512C169.178 446.373 169.354 446.357 169.503 446.464C169.652 446.56 169.732 446.704 169.743 446.896C169.764 447.088 169.69 447.243 169.519 447.36C169.178 447.637 168.804 447.84 168.399 447.968C167.994 448.085 167.599 448.144 167.215 448.144ZM174.401 448.144C173.644 448.144 172.988 447.979 172.433 447.648C171.878 447.317 171.446 446.853 171.137 446.256C170.838 445.648 170.689 444.933 170.689 444.112C170.689 443.291 170.838 442.581 171.137 441.984C171.446 441.376 171.878 440.907 172.433 440.576C172.988 440.245 173.644 440.08 174.401 440.08C175.148 440.08 175.798 440.245 176.353 440.576C176.918 440.907 177.35 441.376 177.649 441.984C177.958 442.581 178.113 443.291 178.113 444.112C178.113 444.933 177.958 445.648 177.649 446.256C177.35 446.853 176.918 447.317 176.353 447.648C175.798 447.979 175.148 448.144 174.401 448.144ZM174.401 447.104C175.126 447.104 175.708 446.848 176.145 446.336C176.582 445.813 176.801 445.072 176.801 444.112C176.801 443.141 176.582 442.4 176.145 441.888C175.708 441.376 175.126 441.12 174.401 441.12C173.665 441.12 173.078 441.376 172.641 441.888C172.214 442.4 172.001 443.141 172.001 444.112C172.001 445.072 172.214 445.813 172.641 446.336C173.078 446.848 173.665 447.104 174.401 447.104ZM180.732 448.112C180.305 448.112 180.092 447.888 180.092 447.44V440.768C180.092 440.331 180.3 440.112 180.716 440.112C181.142 440.112 181.356 440.331 181.356 440.768V441.536C181.59 441.067 181.916 440.709 182.332 440.464C182.748 440.208 183.233 440.08 183.788 440.08C185.004 440.08 185.782 440.608 186.124 441.664C186.358 441.173 186.705 440.789 187.164 440.512C187.622 440.224 188.15 440.08 188.748 440.08C190.476 440.08 191.34 441.104 191.34 443.152V447.44C191.34 447.888 191.121 448.112 190.684 448.112C190.257 448.112 190.044 447.888 190.044 447.44V443.216C190.044 442.501 189.916 441.979 189.66 441.648C189.414 441.307 189.004 441.136 188.428 441.136C187.798 441.136 187.297 441.36 186.924 441.808C186.55 442.256 186.364 442.853 186.364 443.6V447.44C186.364 447.888 186.145 448.112 185.708 448.112C185.281 448.112 185.068 447.888 185.068 447.44V443.216C185.068 442.501 184.94 441.979 184.684 441.648C184.438 441.307 184.028 441.136 183.452 441.136C182.812 441.136 182.305 441.36 181.932 441.808C181.569 442.256 181.388 442.853 181.388 443.6V447.44C181.388 447.888 181.169 448.112 180.732 448.112Z" fill="#656565"/>
</g>
<g filter="url(#filter1_d_6_52)">
<rect x="37" y="497" width="302" height="56" rx="8" fill="#857BAD"/>
<path d="M150.144 531.192C149.286 531.192 148.448 531.096 147.629 530.904C146.822 530.712 146.118 530.424 145.517 530.04C145.222 529.848 145.043 529.611 144.979 529.33C144.915 529.048 144.934 528.786 145.037 528.542C145.152 528.286 145.325 528.114 145.555 528.024C145.798 527.922 146.074 527.966 146.381 528.158C146.944 528.491 147.539 528.734 148.166 528.888C148.794 529.042 149.453 529.118 150.144 529.118C151.155 529.118 151.891 528.952 152.352 528.619C152.813 528.274 153.043 527.832 153.043 527.294C153.043 526.846 152.877 526.494 152.544 526.238C152.224 525.982 151.667 525.771 150.874 525.605L148.762 525.163C146.355 524.651 145.152 523.416 145.152 521.458C145.152 520.613 145.376 519.877 145.824 519.25C146.272 518.622 146.893 518.136 147.686 517.79C148.48 517.445 149.395 517.272 150.432 517.272C151.2 517.272 151.93 517.368 152.621 517.56C153.312 517.752 153.933 518.034 154.483 518.405C154.739 518.584 154.893 518.808 154.944 519.077C154.995 519.333 154.963 519.576 154.848 519.806C154.733 520.024 154.547 520.178 154.291 520.267C154.048 520.344 153.76 520.286 153.427 520.094C152.954 519.826 152.474 519.634 151.987 519.518C151.501 519.403 150.976 519.346 150.413 519.346C149.53 519.346 148.838 519.531 148.339 519.902C147.84 520.274 147.59 520.76 147.59 521.362C147.59 521.822 147.744 522.194 148.051 522.475C148.358 522.744 148.883 522.955 149.626 523.109L151.718 523.55C152.986 523.819 153.926 524.242 154.541 524.818C155.168 525.394 155.482 526.162 155.482 527.122C155.482 527.928 155.264 528.638 154.829 529.253C154.394 529.867 153.773 530.347 152.966 530.693C152.173 531.026 151.232 531.192 150.144 531.192ZM160.759 531.192C158.455 531.192 157.303 529.899 157.303 527.314V522.667C157.303 521.861 157.7 521.458 158.493 521.458C159.3 521.458 159.703 521.861 159.703 522.667V527.352C159.703 528.018 159.837 528.51 160.106 528.83C160.375 529.15 160.804 529.31 161.393 529.31C162.033 529.31 162.557 529.093 162.967 528.658C163.377 528.21 163.581 527.621 163.581 526.891V522.667C163.581 521.861 163.978 521.458 164.772 521.458C165.578 521.458 165.981 521.861 165.981 522.667V529.925C165.981 530.744 165.591 531.154 164.81 531.154C164.029 531.154 163.639 530.744 163.639 529.925V529.598C163.012 530.661 162.052 531.192 160.759 531.192ZM173.894 531.192C173.202 531.192 172.588 531.045 172.05 530.75C171.513 530.443 171.11 530.034 170.841 529.522V529.925C170.841 530.744 170.45 531.154 169.67 531.154C168.876 531.154 168.479 530.744 168.479 529.925V518.52C168.479 517.714 168.876 517.31 169.67 517.31C170.476 517.31 170.879 517.714 170.879 518.52V522.994C171.161 522.52 171.564 522.142 172.089 521.861C172.626 521.566 173.228 521.419 173.894 521.419C174.726 521.419 175.449 521.618 176.063 522.014C176.678 522.411 177.158 522.974 177.503 523.704C177.849 524.421 178.022 525.285 178.022 526.296C178.022 527.294 177.849 528.165 177.503 528.907C177.158 529.637 176.671 530.2 176.044 530.597C175.43 530.994 174.713 531.192 173.894 531.192ZM173.222 529.368C173.938 529.368 174.514 529.112 174.95 528.6C175.385 528.075 175.602 527.307 175.602 526.296C175.602 525.272 175.385 524.51 174.95 524.011C174.514 523.499 173.938 523.243 173.222 523.243C172.505 523.243 171.929 523.499 171.494 524.011C171.058 524.51 170.841 525.272 170.841 526.296C170.841 527.307 171.058 528.075 171.494 528.6C171.929 529.112 172.505 529.368 173.222 529.368ZM183.429 531.192C182.878 531.192 182.296 531.134 181.681 531.019C181.067 530.904 180.517 530.706 180.03 530.424C179.761 530.27 179.595 530.085 179.531 529.867C179.467 529.637 179.473 529.426 179.55 529.234C179.64 529.029 179.781 528.882 179.973 528.792C180.177 528.702 180.414 528.722 180.683 528.85C181.195 529.093 181.675 529.266 182.123 529.368C182.571 529.458 183.013 529.502 183.448 529.502C184.062 529.502 184.517 529.4 184.811 529.195C185.118 528.978 185.272 528.696 185.272 528.35C185.272 527.813 184.875 527.467 184.081 527.314L182.161 526.949C180.536 526.642 179.723 525.797 179.723 524.414C179.723 523.8 179.889 523.269 180.222 522.821C180.568 522.373 181.041 522.027 181.643 521.784C182.245 521.541 182.936 521.419 183.717 521.419C184.843 521.419 185.848 521.669 186.731 522.168C186.974 522.296 187.115 522.475 187.153 522.706C187.205 522.923 187.179 523.134 187.077 523.339C186.987 523.531 186.84 523.672 186.635 523.762C186.43 523.838 186.193 523.813 185.925 523.685C185.528 523.48 185.144 523.333 184.773 523.243C184.414 523.154 184.069 523.109 183.736 523.109C183.109 523.109 182.641 523.218 182.334 523.435C182.04 523.653 181.893 523.941 181.893 524.299C181.893 524.862 182.257 525.208 182.987 525.336L184.907 525.701C185.739 525.854 186.366 526.136 186.789 526.546C187.224 526.955 187.441 527.506 187.441 528.197C187.441 529.131 187.077 529.867 186.347 530.405C185.617 530.93 184.645 531.192 183.429 531.192ZM193.706 531.192C192.72 531.192 191.863 530.994 191.133 530.597C190.404 530.187 189.84 529.611 189.444 528.869C189.047 528.126 188.848 527.256 188.848 526.258C188.848 525.259 189.047 524.402 189.444 523.685C189.84 522.955 190.404 522.398 191.133 522.014C191.863 521.618 192.72 521.419 193.706 521.419C194.128 521.419 194.583 521.477 195.069 521.592C195.568 521.707 196.036 521.899 196.471 522.168C196.727 522.322 196.874 522.52 196.912 522.763C196.964 523.006 196.932 523.23 196.816 523.435C196.714 523.64 196.554 523.787 196.336 523.877C196.132 523.966 195.895 523.934 195.626 523.781C195.037 523.448 194.468 523.282 193.917 523.282C193.085 523.282 192.439 523.544 191.978 524.069C191.53 524.581 191.306 525.317 191.306 526.277C191.306 527.224 191.53 527.973 191.978 528.523C192.439 529.061 193.085 529.33 193.917 529.33C194.468 529.33 195.037 529.17 195.626 528.85C195.895 528.696 196.132 528.664 196.336 528.754C196.541 528.843 196.688 528.997 196.778 529.214C196.868 529.419 196.887 529.643 196.836 529.886C196.784 530.117 196.637 530.309 196.394 530.462C195.972 530.718 195.524 530.904 195.05 531.019C194.576 531.134 194.128 531.192 193.706 531.192ZM199.652 531.154C198.833 531.154 198.423 530.744 198.423 529.925V522.667C198.423 521.861 198.813 521.458 199.594 521.458C200.375 521.458 200.765 521.861 200.765 522.667V523.262C201.226 522.162 202.212 521.547 203.722 521.419C204.273 521.355 204.58 521.669 204.644 522.36C204.708 523.038 204.375 523.416 203.645 523.493L203.223 523.531C201.649 523.685 200.861 524.491 200.861 525.95V529.925C200.861 530.744 200.458 531.154 199.652 531.154ZM207.132 519.691C206.684 519.691 206.332 519.582 206.076 519.365C205.833 519.134 205.711 518.821 205.711 518.424C205.711 518.014 205.833 517.701 206.076 517.483C206.332 517.266 206.684 517.157 207.132 517.157C208.079 517.157 208.553 517.579 208.553 518.424C208.553 519.269 208.079 519.691 207.132 519.691ZM207.132 531.134C206.748 531.134 206.454 531.019 206.249 530.789C206.044 530.558 205.942 530.238 205.942 529.829V522.782C205.942 521.912 206.339 521.477 207.132 521.477C207.939 521.477 208.342 521.912 208.342 522.782V529.829C208.342 530.238 208.239 530.558 208.035 530.789C207.83 531.019 207.529 531.134 207.132 531.134ZM216.25 531.192C215.559 531.192 214.944 531.045 214.407 530.75C213.869 530.443 213.466 530.034 213.197 529.522V529.925C213.197 530.744 212.807 531.154 212.026 531.154C211.232 531.154 210.836 530.744 210.836 529.925V518.52C210.836 517.714 211.232 517.31 212.026 517.31C212.832 517.31 213.236 517.714 213.236 518.52V522.994C213.517 522.52 213.92 522.142 214.445 521.861C214.983 521.566 215.584 521.419 216.25 521.419C217.082 521.419 217.805 521.618 218.42 522.014C219.034 522.411 219.514 522.974 219.86 523.704C220.205 524.421 220.378 525.285 220.378 526.296C220.378 527.294 220.205 528.165 219.86 528.907C219.514 529.637 219.028 530.2 218.4 530.597C217.786 530.994 217.069 531.192 216.25 531.192ZM215.578 529.368C216.295 529.368 216.871 529.112 217.306 528.6C217.741 528.075 217.959 527.307 217.959 526.296C217.959 525.272 217.741 524.51 217.306 524.011C216.871 523.499 216.295 523.243 215.578 523.243C214.861 523.243 214.285 523.499 213.85 524.011C213.415 524.51 213.197 525.272 213.197 526.296C213.197 527.307 213.415 528.075 213.85 528.6C214.285 529.112 214.861 529.368 215.578 529.368ZM226.975 531.192C225.913 531.192 224.998 530.994 224.23 530.597C223.462 530.2 222.866 529.637 222.444 528.907C222.034 528.178 221.83 527.314 221.83 526.315C221.83 525.342 222.028 524.491 222.425 523.762C222.834 523.032 223.391 522.462 224.095 522.053C224.812 521.63 225.625 521.419 226.534 521.419C227.865 521.419 228.914 521.842 229.682 522.686C230.463 523.531 230.854 524.683 230.854 526.142C230.854 526.616 230.546 526.853 229.932 526.853H224.134C224.313 528.53 225.273 529.368 227.014 529.368C227.346 529.368 227.718 529.33 228.127 529.253C228.55 529.163 228.946 529.016 229.318 528.811C229.65 528.619 229.932 528.562 230.162 528.638C230.393 528.702 230.553 528.837 230.642 529.042C230.745 529.246 230.758 529.477 230.681 529.733C230.617 529.976 230.438 530.187 230.143 530.366C229.695 530.648 229.177 530.859 228.588 531C228.012 531.128 227.474 531.192 226.975 531.192ZM226.63 523.051C225.926 523.051 225.356 523.269 224.921 523.704C224.486 524.139 224.223 524.728 224.134 525.47H228.857C228.806 524.69 228.588 524.094 228.204 523.685C227.833 523.262 227.308 523.051 226.63 523.051Z" fill="white"/>
</g>
</g>
<defs>
<filter id="filter0_d_6_52" x="30" y="407" width="316" height="70" filterUnits="userSpaceOnUse" color-interpolation-filters="sRGB">
<feFlood flood-opacity="0" result="BackgroundImageFix"/>
<feColorMatrix in="SourceAlpha" type="matrix" values="0 0 0 0 0 0 0 0 0 0 0 0 0 0 0 0 0 0 127 0" result="hardAlpha"/>
<feMorphology radius="3" operator="dilate" in="SourceAlpha" result="effect1_dropShadow_6_52"/>
<feOffset/>
<feGaussianBlur stdDeviation="2"/>
<feComposite in2="hardAlpha" operator="out"/>
<feColorMatrix type="matrix" values="0 0 0 0 0.950903 0 0 0 0 0.932431 0 0 0 0 0.932431 0 0 0 1 0"/>
<feBlend mode="normal" in2="BackgroundImageFix" result="effect1_dropShadow_6_52"/>
<feBlend mode="normal" in="SourceGraphic" in2="effect1_dropShadow_6_52" result="shape"/>
</filter>
<filter id="filter1_d_6_52" x="30" y="490" width="316" height="70" filterUnits="userSpaceOnUse" color-interpolation-filters="sRGB">
<feFlood flood-opacity="0" result="BackgroundImageFix"/>
<feColorMatrix in="SourceAlpha" type="matrix" values="0 0 0 0 0 0 0 0 0 0 0 0 0 0 0 0 0 0 127 0" result="hardAlpha"/>
<feMorphology radius="3" operator="dilate" in="SourceAlpha" result="effect1_dropShadow_6_52"/>
<feOffset/>
<feGaussianBlur stdDeviation="2"/>
<feComposite in2="hardAlpha" operator="out"/>
<feColorMatrix type="matrix" values="0 0 0 0 0.950903 0 0 0 0 0.932431 0 0 0 0 0.932431 0 0 0 1 0"/>
<feBlend mode="normal" in2="BackgroundImageFix" result="effect1_dropShadow_6_52"/>
<feBlend mode="normal" in="SourceGraphic" in2="effect1_dropShadow_6_52" result="shape"/>
</filter>
<clipPath id="clip0_6_52">
<rect width="375" height="812" fill="white"/>
</clipPath>
</defs>
</svg>
