<svg width="360" height="780" viewBox="0 0 360 780" fill="none" xmlns="http://www.w3.org/2000/svg">
<g clip-path="url(#clip0_10_397)">
<rect width="360" height="780" fill="white"/>
<g filter="url(#filter0_b_10_397)">
<g filter="url(#filter1_b_10_397)">
<path fill-rule="evenodd" clip-rule="evenodd" d="M-8 697H367V780H-8V697Z" fill="#F9F9F9" fill-opacity="0.94"/>
</g>
<rect x="-8" y="696.67" width="375" height="0.33" fill="black" fill-opacity="0.3"/>
</g>
<rect x="113" y="766" width="133" height="5" rx="2.5" fill="black"/>
<path d="M328.961 724.626H330.858V726.39C330.858 728.502 331.935 729.568 334.078 729.568H345.029C347.172 729.568 348.249 728.502 348.249 726.39V715.49C348.249 713.388 347.172 712.321 345.029 712.321H343.132V710.66C343.132 708.548 342.045 707.481 339.912 707.481H328.961C326.808 707.481 325.741 708.548 325.741 710.66V721.458C325.741 723.57 326.808 724.626 328.961 724.626ZM328.981 722.975C327.956 722.975 327.392 722.432 327.392 721.365V710.752C327.392 709.686 327.956 709.132 328.981 709.132H339.881C340.896 709.132 341.481 709.686 341.481 710.752V712.321H334.078C331.935 712.321 330.858 713.377 330.858 715.49V722.975H328.981ZM334.108 727.917C333.083 727.917 332.509 727.364 332.509 726.297V715.582C332.509 714.516 333.083 713.972 334.108 713.972H345.008C346.023 713.972 346.598 714.516 346.598 715.582V726.308C346.598 727.364 346.023 727.917 345.008 727.917H334.108Z" fill="#2E7CF6"/>
<path d="M257.99 711.378C257.21 710.394 255.272 709.522 253.109 709.522C250.269 709.522 247.972 710.988 247.408 712.362V726.687C247.408 727.466 247.91 727.764 248.474 727.764C248.915 727.764 249.182 727.63 249.458 727.415C250.043 726.913 251.222 726.236 253.109 726.236C255.006 726.236 256.329 726.892 256.841 727.354C257.108 727.569 257.426 727.764 257.99 727.764C258.554 727.764 258.872 727.548 259.138 727.354C259.692 726.923 260.984 726.236 262.871 726.236C264.768 726.236 265.947 726.923 266.531 727.415C266.808 727.63 267.064 727.764 267.505 727.764C268.069 727.764 268.582 727.466 268.582 726.687V712.362C268.018 710.988 265.711 709.522 262.871 709.522C260.717 709.522 258.779 710.394 257.99 711.378ZM249.059 712.854C249.294 712.219 250.781 711.07 253.109 711.07C255.447 711.07 256.964 712.229 257.169 712.854V725.826C256.195 725.098 254.708 724.688 253.109 724.688C251.52 724.688 250.033 725.098 249.059 725.867V712.854ZM266.931 712.854V725.867C265.947 725.098 264.47 724.688 262.871 724.688C261.271 724.688 259.794 725.098 258.82 725.826V712.854C259.025 712.229 260.543 711.07 262.871 711.07C265.208 711.07 266.695 712.219 266.931 712.854Z" fill="#2E7CF6"/>
<path d="M180 721.386C180.441 721.386 180.81 721.017 180.81 720.586V710.055L180.749 708.517L181.436 709.245L182.994 710.906C183.138 711.07 183.353 711.152 183.548 711.152C183.968 711.152 184.296 710.845 184.296 710.424C184.296 710.209 184.204 710.045 184.05 709.891L180.584 706.548C180.379 706.343 180.205 706.271 180 706.271C179.785 706.271 179.61 706.343 179.405 706.548L175.939 709.891C175.786 710.045 175.693 710.209 175.693 710.424C175.693 710.845 176.001 711.152 176.432 711.152C176.626 711.152 176.852 711.07 176.996 710.906L178.554 709.245L179.241 708.517L179.18 710.055V720.586C179.18 721.017 179.559 721.386 180 721.386ZM174.114 729.415H185.875C188.019 729.415 189.095 728.348 189.095 726.236V716.002C189.095 713.89 188.019 712.824 185.875 712.824H183.015V714.475H185.845C186.86 714.475 187.444 715.028 187.444 716.095V726.144C187.444 727.21 186.86 727.764 185.845 727.764H174.135C173.109 727.764 172.545 727.21 172.545 726.144V716.095C172.545 715.028 173.109 714.475 174.135 714.475H176.975V712.824H174.114C171.971 712.824 170.895 713.89 170.895 716.002V726.236C170.895 728.348 171.971 729.415 174.114 729.415Z" fill="#2E7CF6"/>
<path d="M96.9189 727.507C97.1855 727.507 97.4111 727.405 97.5854 727.23L105.717 719.284C105.912 719.089 106.014 718.853 106.014 718.597C106.014 718.33 105.912 718.084 105.717 717.91L97.5957 709.973C97.4111 709.789 97.1855 709.686 96.9189 709.686C96.3857 709.686 95.9858 710.096 95.9858 710.629C95.9858 710.875 96.0884 711.122 96.2524 711.296L103.717 718.597L96.2524 725.897C96.0884 726.072 95.9858 726.308 95.9858 726.564C95.9858 727.097 96.3857 727.507 96.9189 727.507Z" fill="#CECECE"/>
<path d="M25.4146 727.22C25.5889 727.395 25.8145 727.497 26.0811 727.497C26.6143 727.497 27.0142 727.097 27.0142 726.564C27.0142 726.308 26.9116 726.072 26.7476 725.897L19.2827 718.597L26.7476 711.296C26.9116 711.122 27.0142 710.875 27.0142 710.629C27.0142 710.096 26.6143 709.686 26.0811 709.686C25.8145 709.686 25.5889 709.789 25.4146 709.963L17.2935 717.91C17.0986 718.074 16.9858 718.33 16.9858 718.597C16.9858 718.853 17.0884 719.089 17.2832 719.284L25.4146 727.22Z" fill="#2E7CF6"/>
<path d="M328.99 22.17H342.993C344.556 22.17 345.823 23.437 345.823 25V29.6733C345.823 31.2363 344.556 32.5033 342.993 32.5033H328.99C327.427 32.5033 326.16 31.2363 326.16 29.6733V25C326.16 23.437 327.427 22.17 328.99 22.17Z" stroke="black" stroke-opacity="0.4"/>
<path d="M347.33 25.3367V29.3367C348.135 28.9979 348.658 28.2098 348.658 27.3367C348.658 26.4635 348.135 25.6754 347.33 25.3367" fill="black" fill-opacity="0.4"/>
<rect x="327.66" y="23.67" width="16.66" height="7.33333" rx="1.33333" fill="black"/>
<path fill-rule="evenodd" clip-rule="evenodd" d="M312.637 23.9373C314.852 23.9374 316.984 24.7889 318.59 26.3157C318.711 26.4335 318.904 26.4321 319.023 26.3123L320.179 25.1457C320.239 25.0849 320.273 25.0027 320.272 24.9171C320.272 24.8315 320.237 24.7497 320.176 24.6897C315.961 20.6501 309.311 20.6501 305.096 24.6897C305.035 24.7496 305.001 24.8315 305 24.917C304.999 25.0026 305.033 25.0849 305.093 25.1457L306.25 26.3123C306.369 26.4322 306.562 26.4337 306.683 26.3157C308.289 24.7888 310.42 23.9373 312.637 23.9373ZM312.637 27.733C313.854 27.7329 315.028 28.1855 315.931 29.0027C316.053 29.1186 316.245 29.1161 316.364 28.997L317.519 27.8303C317.579 27.7691 317.613 27.6861 317.612 27.5999C317.611 27.5136 317.576 27.4313 317.514 27.3713C314.766 24.8149 310.51 24.8149 307.762 27.3713C307.7 27.4313 307.664 27.5136 307.663 27.5999C307.662 27.6862 307.696 27.7692 307.757 27.8303L308.912 28.997C309.031 29.1161 309.223 29.1186 309.345 29.0027C310.247 28.186 311.42 27.7335 312.637 27.733ZM314.95 30.2868C314.951 30.3733 314.917 30.4567 314.856 30.5173L312.858 32.533C312.8 32.5922 312.72 32.6256 312.637 32.6256C312.553 32.6256 312.473 32.5922 312.415 32.533L310.417 30.5173C310.356 30.4567 310.322 30.3733 310.323 30.2867C310.325 30.2002 310.363 30.1183 310.427 30.0603C311.703 28.9814 313.571 28.9814 314.846 30.0603C314.91 30.1184 314.948 30.2003 314.95 30.2868Z" fill="black"/>
<path fill-rule="evenodd" clip-rule="evenodd" d="M298.66 22H297.66C297.108 22 296.66 22.4477 296.66 23V31.6667C296.66 32.219 297.108 32.6667 297.66 32.6667H298.66C299.212 32.6667 299.66 32.219 299.66 31.6667V23C299.66 22.4477 299.212 22 298.66 22ZM292.993 24.3333H293.993C294.546 24.3333 294.993 24.781 294.993 25.3333V31.6667C294.993 32.219 294.546 32.6667 293.993 32.6667H292.993C292.441 32.6667 291.993 32.219 291.993 31.6667V25.3333C291.993 24.781 292.441 24.3333 292.993 24.3333ZM289.327 26.6667H288.327C287.774 26.6667 287.327 27.1144 287.327 27.6667V31.6667C287.327 32.219 287.774 32.6667 288.327 32.6667H289.327C289.879 32.6667 290.327 32.219 290.327 31.6667V27.6667C290.327 27.1144 289.879 26.6667 289.327 26.6667ZM284.66 28.6667H283.66C283.108 28.6667 282.66 29.1144 282.66 29.6667V31.6667C282.66 32.219 283.108 32.6667 283.66 32.6667H284.66C285.212 32.6667 285.66 32.219 285.66 31.6667V29.6667C285.66 29.1144 285.212 28.6667 284.66 28.6667Z" fill="black"/>
<path d="M26.3833 32.75C25.6233 32.75 25.2433 32.375 25.2433 31.625C25.2433 30.885 25.6233 30.515 26.3833 30.515H27.7333V25.16L26.8183 25.715C26.5583 25.875 26.3133 25.94 26.0833 25.91C25.8533 25.87 25.6583 25.77 25.4983 25.61C25.3383 25.45 25.2333 25.255 25.1833 25.025C25.1333 24.795 25.1533 24.565 25.2433 24.335C25.3333 24.105 25.5133 23.91 25.7833 23.75L27.8533 22.46C28.3033 22.18 28.7783 22.04 29.2783 22.04C29.6583 22.04 29.9533 22.14 30.1633 22.34C30.3733 22.53 30.4783 22.81 30.4783 23.18V30.515H31.6783C32.4383 30.515 32.8183 30.885 32.8183 31.625C32.8183 32.375 32.4383 32.75 31.6783 32.75H26.3833ZM37.2424 32.915C35.9624 32.915 34.9524 32.645 34.2124 32.105C33.4824 31.565 33.1174 30.815 33.1174 29.855C33.1174 29.235 33.2674 28.705 33.5674 28.265C33.8774 27.815 34.2824 27.49 34.7824 27.29C34.3624 27.07 34.0274 26.75 33.7774 26.33C33.5274 25.91 33.4024 25.435 33.4024 24.905C33.4024 24.005 33.7474 23.3 34.4374 22.79C35.1274 22.27 36.0624 22.01 37.2424 22.01C38.4224 22.01 39.3574 22.27 40.0474 22.79C40.7374 23.3 41.0824 24.005 41.0824 24.905C41.0824 25.455 40.9574 25.94 40.7074 26.36C40.4674 26.78 40.1424 27.095 39.7324 27.305C40.2224 27.505 40.6174 27.83 40.9174 28.28C41.2174 28.72 41.3674 29.245 41.3674 29.855C41.3674 30.815 40.9974 31.565 40.2574 32.105C39.5274 32.645 38.5224 32.915 37.2424 32.915ZM37.2424 26.36C37.6624 26.36 37.9924 26.26 38.2324 26.06C38.4724 25.85 38.5924 25.57 38.5924 25.22C38.5924 24.87 38.4724 24.595 38.2324 24.395C37.9924 24.185 37.6624 24.08 37.2424 24.08C36.8224 24.08 36.4924 24.185 36.2524 24.395C36.0224 24.595 35.9074 24.87 35.9074 25.22C35.9074 25.57 36.0224 25.85 36.2524 26.06C36.4924 26.26 36.8224 26.36 37.2424 26.36ZM37.2424 30.845C38.3324 30.845 38.8774 30.445 38.8774 29.645C38.8774 28.845 38.3324 28.445 37.2424 28.445C36.7124 28.445 36.3074 28.55 36.0274 28.76C35.7474 28.96 35.6074 29.255 35.6074 29.645C35.6074 30.035 35.7474 30.335 36.0274 30.545C36.3074 30.745 36.7124 30.845 37.2424 30.845ZM43.4965 28.19C43.0465 28.19 42.6865 28.055 42.4165 27.785C42.1565 27.505 42.0265 27.155 42.0265 26.735C42.0265 26.295 42.1565 25.945 42.4165 25.685C42.6865 25.415 43.0465 25.28 43.4965 25.28C43.9565 25.28 44.3165 25.415 44.5765 25.685C44.8365 25.945 44.9665 26.295 44.9665 26.735C44.9665 27.155 44.8365 27.505 44.5765 27.785C44.3165 28.055 43.9565 28.19 43.4965 28.19ZM43.4965 32.84C43.0465 32.84 42.6865 32.705 42.4165 32.435C42.1565 32.155 42.0265 31.8 42.0265 31.37C42.0265 30.95 42.1565 30.605 42.4165 30.335C42.6865 30.065 43.0465 29.93 43.4965 29.93C43.9565 29.93 44.3165 30.065 44.5765 30.335C44.8365 30.605 44.9665 30.95 44.9665 31.37C44.9665 31.8 44.8365 32.155 44.5765 32.435C44.3165 32.705 43.9565 32.84 43.4965 32.84ZM51.3535 32.885C50.9335 32.885 50.6035 32.77 50.3635 32.54C50.1335 32.31 50.0185 31.97 50.0185 31.52V30.98H47.0035C46.5635 30.98 46.2185 30.88 45.9685 30.68C45.7285 30.48 45.6085 30.18 45.6085 29.78C45.6085 29.54 45.6535 29.305 45.7435 29.075C45.8335 28.845 45.9935 28.57 46.2235 28.25L49.8835 22.91C50.0935 22.61 50.3185 22.39 50.5585 22.25C50.7985 22.11 51.0935 22.04 51.4435 22.04C51.8235 22.04 52.1235 22.155 52.3435 22.385C52.5635 22.615 52.6735 22.955 52.6735 23.405V28.895H53.0335C53.8035 28.895 54.1885 29.24 54.1885 29.93C54.1885 30.63 53.8035 30.98 53.0335 30.98H52.6735V31.52C52.6735 31.96 52.5585 32.3 52.3285 32.54C52.0985 32.77 51.7735 32.885 51.3535 32.885ZM50.0185 28.895V25.97L48.0535 28.895H50.0185ZM56.1376 32.75C55.6976 32.75 55.3776 32.65 55.1776 32.45C54.9876 32.24 54.8926 31.935 54.8926 31.535C54.8926 31.255 54.9526 31.005 55.0726 30.785C55.1926 30.565 55.3576 30.35 55.5676 30.14L58.1926 27.395C58.5826 26.985 58.8576 26.63 59.0176 26.33C59.1876 26.02 59.2726 25.715 59.2726 25.415C59.2726 24.655 58.7876 24.275 57.8176 24.275C57.5776 24.275 57.3176 24.31 57.0376 24.38C56.7676 24.44 56.4826 24.55 56.1826 24.71C55.9126 24.84 55.6676 24.88 55.4476 24.83C55.2276 24.77 55.0476 24.655 54.9076 24.485C54.7676 24.315 54.6776 24.12 54.6376 23.9C54.6076 23.68 54.6426 23.465 54.7426 23.255C54.8426 23.035 55.0226 22.855 55.2826 22.715C55.7426 22.475 56.2176 22.3 56.7076 22.19C57.2076 22.07 57.7076 22.01 58.2076 22.01C59.4276 22.01 60.3576 22.275 60.9976 22.805C61.6476 23.335 61.9726 24.1 61.9726 25.1C61.9726 25.74 61.8276 26.35 61.5376 26.93C61.2476 27.51 60.7626 28.135 60.0826 28.805L58.3726 30.515H61.3576C62.1176 30.515 62.4976 30.885 62.4976 31.625C62.4976 32.375 62.1176 32.75 61.3576 32.75H56.1376Z" fill="black"/>
<rect y="746" width="360" height="34" fill="#FAD7CF" fill-opacity="0.5"/>
<rect y="698" width="360" height="48" fill="#FFEDCA" fill-opacity="0.5"/>
<rect y="638" width="360" height="60" fill="#C3D2E8" fill-opacity="0.5"/>
<rect width="360" height="44" fill="#FAD7CF" fill-opacity="0.5"/>
<path d="M343.735 241.735C343.588 241.881 343.588 242.119 343.735 242.265L346.121 244.652C346.268 244.798 346.505 244.798 346.652 244.652C346.798 244.505 346.798 244.268 346.652 244.121L344.53 242L346.652 239.879C346.798 239.732 346.798 239.495 346.652 239.348C346.505 239.202 346.268 239.202 346.121 239.348L343.735 241.735ZM360.265 242.265C360.412 242.119 360.412 241.881 360.265 241.735L357.879 239.348C357.732 239.202 357.495 239.202 357.348 239.348C357.202 239.495 357.202 239.732 357.348 239.879L359.47 242L357.348 244.121C357.202 244.268 357.202 244.505 357.348 244.652C357.495 244.798 357.732 244.798 357.879 244.652L360.265 242.265ZM344 242.375H360V241.625H344V242.375Z" fill="#9847FE"/>
<path d="M57.076 726.112C56.82 726.112 56.6173 726.043 56.468 725.904C56.3187 725.755 56.244 725.552 56.244 725.296V723.712H51.956C51.6893 723.712 51.476 723.653 51.316 723.536C51.156 723.419 51.076 723.243 51.076 723.008C51.076 722.859 51.1133 722.704 51.188 722.544C51.2627 722.384 51.3853 722.176 51.556 721.92L56.212 715.152C56.3293 714.971 56.4627 714.837 56.612 714.752C56.7613 714.656 56.932 714.608 57.124 714.608C57.348 714.608 57.5293 714.677 57.668 714.816C57.8173 714.944 57.892 715.147 57.892 715.424V722.32H58.9C59.4013 722.32 59.652 722.549 59.652 723.008C59.652 723.477 59.4013 723.712 58.9 723.712H57.892V725.296C57.892 725.84 57.62 726.112 57.076 726.112ZM56.244 722.32V717.296L52.804 722.32H56.244ZM64.5338 726.144C63.2431 726.144 62.2351 725.867 61.5098 725.312C60.7951 724.757 60.4378 723.984 60.4378 722.992C60.4378 722.299 60.6191 721.712 60.9818 721.232C61.3551 720.741 61.8404 720.405 62.4378 720.224C61.9044 720 61.4831 719.659 61.1738 719.2C60.8644 718.731 60.7098 718.192 60.7098 717.584C60.7098 716.645 61.0564 715.909 61.7498 715.376C62.4431 714.843 63.3711 714.576 64.5338 714.576C65.7071 714.576 66.6404 714.843 67.3338 715.376C68.0271 715.909 68.3738 716.645 68.3738 717.584C68.3738 718.192 68.2138 718.731 67.8938 719.2C67.5844 719.669 67.1631 720.011 66.6298 720.224C67.2378 720.405 67.7231 720.741 68.0858 721.232C68.4484 721.712 68.6298 722.299 68.6298 722.992C68.6298 723.984 68.2671 724.757 67.5418 725.312C66.8271 725.867 65.8244 726.144 64.5338 726.144ZM64.5338 719.632C65.2484 719.632 65.8031 719.467 66.1978 719.136C66.6031 718.795 66.8058 718.331 66.8058 717.744C66.8058 717.168 66.6031 716.715 66.1978 716.384C65.8031 716.053 65.2484 715.888 64.5338 715.888C63.8191 715.888 63.2644 716.053 62.8698 716.384C62.4751 716.715 62.2778 717.168 62.2778 717.744C62.2778 718.331 62.4751 718.795 62.8698 719.136C63.2644 719.467 63.8191 719.632 64.5338 719.632ZM64.5338 724.832C66.2298 724.832 67.0778 724.181 67.0778 722.88C67.0778 721.589 66.2298 720.944 64.5338 720.944C63.7018 720.944 63.0671 721.104 62.6298 721.424C62.2031 721.744 61.9898 722.229 61.9898 722.88C61.9898 724.181 62.8378 724.832 64.5338 724.832ZM70.9835 728.992C70.4502 728.992 70.1835 728.72 70.1835 728.176V718.896C70.1835 718.352 70.4448 718.08 70.9675 718.08C71.5008 718.08 71.7675 718.352 71.7675 718.896V719.504C72.0022 719.056 72.3488 718.704 72.8075 718.448C73.2662 718.181 73.7888 718.048 74.3755 718.048C75.0688 718.048 75.6715 718.213 76.1835 718.544C76.7062 718.875 77.1062 719.344 77.3835 719.952C77.6715 720.549 77.8155 721.264 77.8155 722.096C77.8155 722.928 77.6715 723.648 77.3835 724.256C77.1062 724.864 76.7062 725.333 76.1835 725.664C75.6715 725.984 75.0688 726.144 74.3755 726.144C73.7995 726.144 73.2822 726.021 72.8235 725.776C72.3755 725.52 72.0342 725.173 71.7995 724.736V728.176C71.7995 728.72 71.5275 728.992 70.9835 728.992ZM73.9755 724.896C74.6475 724.896 75.1808 724.656 75.5755 724.176C75.9808 723.696 76.1835 723.003 76.1835 722.096C76.1835 721.189 75.9808 720.501 75.5755 720.032C75.1808 719.552 74.6475 719.312 73.9755 719.312C73.3035 719.312 72.7648 719.552 72.3595 720.032C71.9648 720.501 71.7675 721.189 71.7675 722.096C71.7675 723.003 71.9648 723.696 72.3595 724.176C72.7648 724.656 73.3035 724.896 73.9755 724.896ZM79.4411 726.096C79.1531 726.096 78.9451 725.979 78.8171 725.744C78.6998 725.509 78.7585 725.243 78.9931 724.944L81.3931 721.968L79.1691 719.216C78.9238 718.928 78.8651 718.667 78.9931 718.432C79.1211 718.197 79.3238 718.08 79.6011 718.08C79.8038 718.08 79.9691 718.117 80.0971 718.192C80.2358 718.256 80.3638 718.368 80.4811 718.528L82.3211 720.864L84.1771 718.528C84.2945 718.368 84.4171 718.256 84.5451 718.192C84.6731 718.117 84.8385 718.08 85.0411 718.08C85.3185 718.08 85.5211 718.197 85.6491 718.432C85.7771 718.667 85.7185 718.933 85.4731 719.232L83.2491 721.984L85.6491 724.944C85.8838 725.232 85.9371 725.499 85.8091 725.744C85.6918 725.979 85.4891 726.096 85.2011 726.096C84.8491 726.096 84.5558 725.947 84.3211 725.648L82.3051 723.12L80.3051 725.648C80.1878 725.797 80.0651 725.909 79.9371 725.984C79.8091 726.059 79.6438 726.096 79.4411 726.096Z" fill="#8431EC"/>
<path d="M42.0303 696.97C41.7374 696.677 41.2626 696.677 40.9697 696.97L36.1967 701.743C35.9038 702.036 35.9038 702.51 36.1967 702.803C36.4896 703.096 36.9645 703.096 37.2574 702.803L41.5 698.561L45.7426 702.803C46.0355 703.096 46.5104 703.096 46.8033 702.803C47.0962 702.51 47.0962 702.036 46.8033 701.743L42.0303 696.97ZM40.9697 746.041C41.2626 746.333 41.7374 746.333 42.0303 746.041L46.8033 741.268C47.0962 740.975 47.0962 740.5 46.8033 740.207C46.5104 739.914 46.0355 739.914 45.7426 740.207L41.5 744.45L37.2574 740.207C36.9645 739.914 36.4896 739.914 36.1967 740.207C35.9038 740.5 35.9038 740.975 36.1967 741.268L40.9697 746.041ZM40.75 697.5V745.51H42.25V697.5H40.75Z" fill="#9847FE"/>
<rect x="16" y="451" width="328" height="16" rx="2" fill="#D8D8D8"/>
<rect x="16" y="479" width="328" height="16" rx="2" fill="#D8D8D8"/>
<rect x="16" y="507" width="328" height="16" rx="2" fill="#D8D8D8"/>
<rect x="16" y="535" width="328" height="16" rx="2" fill="#D8D8D8"/>
<rect x="16" y="563" width="328" height="16" rx="2" fill="#D8D8D8"/>
<rect x="16" y="591" width="328" height="16" rx="2" fill="#D8D8D8"/>
<rect x="16" y="619" width="328" height="16" rx="2" fill="#D8D8D8"/>
<rect x="16" y="647" width="242" height="16" rx="2" fill="#D8D8D8"/>
<rect x="16" y="44" width="328" height="10" rx="2" fill="#D8D8D8"/>
<rect x="16" y="66" width="328" height="16" rx="2" fill="#D8D8D8"/>
<rect x="16" y="94" width="328" height="16" rx="2" fill="#D8D8D8"/>
<rect x="16" y="122" width="328" height="16" rx="2" fill="#D8D8D8"/>
<rect x="16" y="150" width="328" height="16" rx="2" fill="#D8D8D8"/>
<rect x="16" y="178" width="328" height="16" rx="2" fill="#D8D8D8"/>
<rect x="16" y="206" width="328" height="16" rx="2" fill="#D8D8D8"/>
<rect x="16" y="234" width="328" height="16" rx="2" fill="#D8D8D8"/>
<rect x="16" y="262" width="242" height="16" rx="2" fill="#D8D8D8"/>
<rect x="16" y="414" width="301" height="24" rx="2" fill="#929292"/>
<rect x="16" y="310" width="328" height="48" rx="5" fill="#7980C0"/>
<path d="M134.607 331.3C134.354 330.98 134.007 330.747 133.567 330.6C133.14 330.44 132.734 330.36 132.347 330.36C132.12 330.36 131.887 330.387 131.647 330.44C131.407 330.493 131.18 330.58 130.967 330.7C130.754 330.807 130.58 330.953 130.447 331.14C130.314 331.327 130.247 331.553 130.247 331.82C130.247 332.247 130.407 332.573 130.727 332.8C131.047 333.027 131.447 333.22 131.927 333.38C132.42 333.54 132.947 333.7 133.507 333.86C134.067 334.02 134.587 334.247 135.067 334.54C135.56 334.833 135.967 335.227 136.287 335.72C136.607 336.213 136.767 336.873 136.767 337.7C136.767 338.487 136.62 339.173 136.327 339.76C136.034 340.347 135.634 340.833 135.127 341.22C134.634 341.607 134.054 341.893 133.387 342.08C132.734 342.267 132.04 342.36 131.307 342.36C130.387 342.36 129.534 342.22 128.747 341.94C127.96 341.66 127.227 341.207 126.547 340.58L128.767 338.14C129.087 338.567 129.487 338.9 129.967 339.14C130.46 339.367 130.967 339.48 131.487 339.48C131.74 339.48 131.994 339.453 132.247 339.4C132.514 339.333 132.747 339.24 132.947 339.12C133.16 339 133.327 338.847 133.447 338.66C133.58 338.473 133.647 338.253 133.647 338C133.647 337.573 133.48 337.24 133.147 337C132.827 336.747 132.42 336.533 131.927 336.36C131.434 336.187 130.9 336.013 130.327 335.84C129.754 335.667 129.22 335.433 128.727 335.14C128.234 334.847 127.82 334.46 127.487 333.98C127.167 333.5 127.007 332.867 127.007 332.08C127.007 331.32 127.154 330.653 127.447 330.08C127.754 329.507 128.154 329.027 128.647 328.64C129.154 328.253 129.734 327.967 130.387 327.78C131.04 327.58 131.714 327.48 132.407 327.48C133.207 327.48 133.98 327.593 134.727 327.82C135.474 328.047 136.147 328.427 136.747 328.96L134.607 331.3ZM150.751 336.54C150.751 337.38 150.625 338.153 150.371 338.86C150.118 339.567 149.738 340.18 149.231 340.7C148.738 341.22 148.118 341.627 147.371 341.92C146.625 342.213 145.765 342.36 144.791 342.36C143.805 342.36 142.938 342.213 142.191 341.92C141.445 341.627 140.818 341.22 140.311 340.7C139.818 340.18 139.445 339.567 139.191 338.86C138.938 338.153 138.811 337.38 138.811 336.54V327.84H141.931V336.42C141.931 336.86 141.998 337.267 142.131 337.64C142.278 338.013 142.478 338.34 142.731 338.62C142.985 338.887 143.285 339.1 143.631 339.26C143.991 339.407 144.378 339.48 144.791 339.48C145.205 339.48 145.585 339.407 145.931 339.26C146.278 339.1 146.578 338.887 146.831 338.62C147.085 338.34 147.278 338.013 147.411 337.64C147.558 337.267 147.631 336.86 147.631 336.42V327.84H150.751V336.54ZM153.355 327.84H158.635C159.249 327.84 159.862 327.887 160.475 327.98C161.102 328.06 161.662 328.233 162.155 328.5C162.649 328.753 163.049 329.113 163.355 329.58C163.662 330.047 163.815 330.667 163.815 331.44C163.815 332.24 163.589 332.907 163.135 333.44C162.695 333.96 162.109 334.333 161.375 334.56V334.6C161.842 334.667 162.262 334.8 162.635 335C163.022 335.187 163.349 335.433 163.615 335.74C163.895 336.033 164.109 336.38 164.255 336.78C164.402 337.18 164.475 337.607 164.475 338.06C164.475 338.807 164.315 339.433 163.995 339.94C163.675 340.433 163.262 340.833 162.755 341.14C162.249 341.447 161.675 341.667 161.035 341.8C160.409 341.933 159.782 342 159.155 342H153.355V327.84ZM156.475 333.5H158.735C158.975 333.5 159.209 333.473 159.435 333.42C159.675 333.367 159.889 333.28 160.075 333.16C160.262 333.04 160.409 332.88 160.515 332.68C160.635 332.48 160.695 332.24 160.695 331.96C160.695 331.667 160.629 331.427 160.495 331.24C160.375 331.04 160.215 330.887 160.015 330.78C159.815 330.673 159.589 330.6 159.335 330.56C159.082 330.507 158.835 330.48 158.595 330.48H156.475V333.5ZM156.475 339.36H159.275C159.515 339.36 159.755 339.333 159.995 339.28C160.249 339.227 160.475 339.133 160.675 339C160.875 338.867 161.035 338.693 161.155 338.48C161.289 338.267 161.355 338.007 161.355 337.7C161.355 337.367 161.269 337.1 161.095 336.9C160.935 336.687 160.729 336.527 160.475 336.42C160.222 336.313 159.949 336.24 159.655 336.2C159.362 336.16 159.089 336.14 158.835 336.14H156.475V339.36ZM173.044 331.3C172.791 330.98 172.444 330.747 172.004 330.6C171.578 330.44 171.171 330.36 170.784 330.36C170.558 330.36 170.324 330.387 170.084 330.44C169.844 330.493 169.618 330.58 169.404 330.7C169.191 330.807 169.018 330.953 168.884 331.14C168.751 331.327 168.684 331.553 168.684 331.82C168.684 332.247 168.844 332.573 169.164 332.8C169.484 333.027 169.884 333.22 170.364 333.38C170.858 333.54 171.384 333.7 171.944 333.86C172.504 334.02 173.024 334.247 173.504 334.54C173.998 334.833 174.404 335.227 174.724 335.72C175.044 336.213 175.204 336.873 175.204 337.7C175.204 338.487 175.058 339.173 174.764 339.76C174.471 340.347 174.071 340.833 173.564 341.22C173.071 341.607 172.491 341.893 171.824 342.08C171.171 342.267 170.478 342.36 169.744 342.36C168.824 342.36 167.971 342.22 167.184 341.94C166.398 341.66 165.664 341.207 164.984 340.58L167.204 338.14C167.524 338.567 167.924 338.9 168.404 339.14C168.898 339.367 169.404 339.48 169.924 339.48C170.178 339.48 170.431 339.453 170.684 339.4C170.951 339.333 171.184 339.24 171.384 339.12C171.598 339 171.764 338.847 171.884 338.66C172.018 338.473 172.084 338.253 172.084 338C172.084 337.573 171.918 337.24 171.584 337C171.264 336.747 170.858 336.533 170.364 336.36C169.871 336.187 169.338 336.013 168.764 335.84C168.191 335.667 167.658 335.433 167.164 335.14C166.671 334.847 166.258 334.46 165.924 333.98C165.604 333.5 165.444 332.867 165.444 332.08C165.444 331.32 165.591 330.653 165.884 330.08C166.191 329.507 166.591 329.027 167.084 328.64C167.591 328.253 168.171 327.967 168.824 327.78C169.478 327.58 170.151 327.48 170.844 327.48C171.644 327.48 172.418 327.593 173.164 327.82C173.911 328.047 174.584 328.427 175.184 328.96L173.044 331.3ZM186.509 331.52C186.202 331.147 185.822 330.86 185.369 330.66C184.929 330.46 184.415 330.36 183.829 330.36C183.242 330.36 182.695 330.473 182.189 330.7C181.695 330.927 181.262 331.247 180.889 331.66C180.529 332.06 180.242 332.54 180.029 333.1C179.829 333.66 179.729 334.267 179.729 334.92C179.729 335.587 179.829 336.2 180.029 336.76C180.242 337.307 180.529 337.787 180.889 338.2C181.249 338.6 181.669 338.913 182.149 339.14C182.642 339.367 183.169 339.48 183.729 339.48C184.369 339.48 184.935 339.347 185.429 339.08C185.922 338.813 186.329 338.44 186.649 337.96L189.249 339.9C188.649 340.74 187.889 341.36 186.969 341.76C186.049 342.16 185.102 342.36 184.129 342.36C183.022 342.36 182.002 342.187 181.069 341.84C180.135 341.493 179.329 341 178.649 340.36C177.969 339.707 177.435 338.92 177.049 338C176.675 337.08 176.489 336.053 176.489 334.92C176.489 333.787 176.675 332.76 177.049 331.84C177.435 330.92 177.969 330.14 178.649 329.5C179.329 328.847 180.135 328.347 181.069 328C182.002 327.653 183.022 327.48 184.129 327.48C184.529 327.48 184.942 327.52 185.369 327.6C185.809 327.667 186.235 327.78 186.649 327.94C187.075 328.1 187.482 328.313 187.869 328.58C188.255 328.847 188.602 329.173 188.909 329.56L186.509 331.52ZM190.66 327.84H196.14C196.86 327.84 197.54 327.913 198.18 328.06C198.833 328.193 199.4 328.427 199.88 328.76C200.373 329.08 200.76 329.52 201.04 330.08C201.333 330.627 201.48 331.313 201.48 332.14C201.48 333.14 201.22 333.993 200.7 334.7C200.18 335.393 199.42 335.833 198.42 336.02L202.02 342H198.28L195.32 336.34H193.78V342H190.66V327.84ZM193.78 333.7H195.62C195.9 333.7 196.193 333.693 196.5 333.68C196.82 333.653 197.107 333.593 197.36 333.5C197.613 333.393 197.82 333.233 197.98 333.02C198.153 332.807 198.24 332.507 198.24 332.12C198.24 331.76 198.167 331.473 198.02 331.26C197.873 331.047 197.687 330.887 197.46 330.78C197.233 330.66 196.973 330.58 196.68 330.54C196.387 330.5 196.1 330.48 195.82 330.48H193.78V333.7ZM203.309 327.84H206.429V342H203.309V327.84ZM208.987 327.84H214.267C214.88 327.84 215.493 327.887 216.107 327.98C216.733 328.06 217.293 328.233 217.787 328.5C218.28 328.753 218.68 329.113 218.987 329.58C219.293 330.047 219.447 330.667 219.447 331.44C219.447 332.24 219.22 332.907 218.767 333.44C218.327 333.96 217.74 334.333 217.007 334.56V334.6C217.473 334.667 217.893 334.8 218.267 335C218.653 335.187 218.98 335.433 219.247 335.74C219.527 336.033 219.74 336.38 219.887 336.78C220.033 337.18 220.107 337.607 220.107 338.06C220.107 338.807 219.947 339.433 219.627 339.94C219.307 340.433 218.893 340.833 218.387 341.14C217.88 341.447 217.307 341.667 216.667 341.8C216.04 341.933 215.413 342 214.787 342H208.987V327.84ZM212.107 333.5H214.367C214.607 333.5 214.84 333.473 215.067 333.42C215.307 333.367 215.52 333.28 215.707 333.16C215.893 333.04 216.04 332.88 216.147 332.68C216.267 332.48 216.327 332.24 216.327 331.96C216.327 331.667 216.26 331.427 216.127 331.24C216.007 331.04 215.847 330.887 215.647 330.78C215.447 330.673 215.22 330.6 214.967 330.56C214.713 330.507 214.467 330.48 214.227 330.48H212.107V333.5ZM212.107 339.36H214.907C215.147 339.36 215.387 339.333 215.627 339.28C215.88 339.227 216.107 339.133 216.307 339C216.507 338.867 216.667 338.693 216.787 338.48C216.92 338.267 216.987 338.007 216.987 337.7C216.987 337.367 216.9 337.1 216.727 336.9C216.567 336.687 216.36 336.527 216.107 336.42C215.853 336.313 215.58 336.24 215.287 336.2C214.993 336.16 214.72 336.14 214.467 336.14H212.107V339.36ZM221.795 327.84H231.415V330.72H224.915V333.36H231.055V336.24H224.915V339.12H231.775V342H221.795V327.84Z" fill="white"/>
<path d="M73.3718 338.628C73.0518 338.628 72.8011 338.543 72.6198 338.372C72.4384 338.191 72.3478 337.935 72.3478 337.604V336.356H68.3958C68.0651 336.356 67.7984 336.287 67.5958 336.148C67.4038 336.009 67.3078 335.796 67.3078 335.508C67.3078 335.327 67.3504 335.135 67.4358 334.932C67.5318 334.729 67.6971 334.463 67.9318 334.132L72.3158 327.78C72.4651 327.556 72.6304 327.385 72.8118 327.268C72.9931 327.151 73.2011 327.092 73.4358 327.092C73.7131 327.092 73.9424 327.177 74.1238 327.348C74.3051 327.508 74.3958 327.764 74.3958 328.116V334.66H75.1798C75.7984 334.66 76.1078 334.943 76.1078 335.508C76.1078 336.073 75.7984 336.356 75.1798 336.356H74.3958V337.604C74.3958 337.935 74.3051 338.191 74.1238 338.372C73.9424 338.543 73.6918 338.628 73.3718 338.628ZM72.3478 334.66V330.356L69.4038 334.66H72.3478ZM80.8775 338.66C79.5655 338.66 78.5362 338.377 77.7895 337.812C77.0535 337.247 76.6855 336.463 76.6855 335.46C76.6855 334.777 76.8615 334.196 77.2135 333.716C77.5762 333.236 78.0455 332.9 78.6215 332.708C78.1095 332.484 77.7042 332.143 77.4055 331.684C77.1175 331.225 76.9735 330.697 76.9735 330.1C76.9735 329.151 77.3255 328.409 78.0295 327.876C78.7335 327.332 79.6828 327.06 80.8775 327.06C82.0828 327.06 83.0375 327.332 83.7415 327.876C84.4455 328.409 84.7975 329.151 84.7975 330.1C84.7975 330.697 84.6482 331.231 84.3495 331.7C84.0615 332.159 83.6668 332.495 83.1655 332.708C83.7415 332.9 84.2002 333.241 84.5415 333.732C84.8935 334.212 85.0695 334.788 85.0695 335.46C85.0695 336.463 84.6962 337.247 83.9495 337.812C83.2135 338.377 82.1895 338.66 80.8775 338.66ZM80.8775 331.988C81.5068 331.988 81.9975 331.839 82.3495 331.54C82.7122 331.241 82.8935 330.831 82.8935 330.308C82.8935 329.796 82.7122 329.396 82.3495 329.108C81.9975 328.809 81.5068 328.66 80.8775 328.66C80.2482 328.66 79.7575 328.809 79.4055 329.108C79.0535 329.396 78.8775 329.796 78.8775 330.308C78.8775 330.831 79.0535 331.241 79.4055 331.54C79.7575 331.839 80.2482 331.988 80.8775 331.988ZM80.8775 337.06C82.4028 337.06 83.1655 336.479 83.1655 335.316C83.1655 334.164 82.4028 333.588 80.8775 333.588C80.1308 333.588 79.5602 333.732 79.1655 334.02C78.7815 334.308 78.5895 334.74 78.5895 335.316C78.5895 335.892 78.7815 336.329 79.1655 336.628C79.5602 336.916 80.1308 337.06 80.8775 337.06ZM87.4233 341.508C86.7619 341.508 86.4313 341.172 86.4313 340.5V331.556C86.4313 330.884 86.7566 330.548 87.4073 330.548C88.0686 330.548 88.3993 330.884 88.3993 331.556V331.892C88.6233 331.476 88.9593 331.145 89.4073 330.9C89.8553 330.644 90.3673 330.516 90.9433 330.516C91.6259 330.516 92.2233 330.681 92.7353 331.012C93.2579 331.343 93.6633 331.812 93.9513 332.42C94.2393 333.017 94.3833 333.737 94.3833 334.58C94.3833 335.412 94.2393 336.137 93.9513 336.756C93.6633 337.364 93.2633 337.833 92.7513 338.164C92.2393 338.495 91.6366 338.66 90.9433 338.66C90.3886 338.66 89.8873 338.543 89.4393 338.308C89.0019 338.063 88.6659 337.737 88.4313 337.332V340.5C88.4313 341.172 88.0953 341.508 87.4233 341.508ZM90.3833 337.14C90.9806 337.14 91.4606 336.927 91.8233 336.5C92.1859 336.063 92.3673 335.423 92.3673 334.58C92.3673 333.727 92.1859 333.092 91.8233 332.676C91.4606 332.249 90.9806 332.036 90.3833 332.036C89.7859 332.036 89.3059 332.249 88.9433 332.676C88.5806 333.092 88.3993 333.727 88.3993 334.58C88.3993 335.423 88.5806 336.063 88.9433 336.5C89.3059 336.927 89.7859 337.14 90.3833 337.14ZM96.0859 338.58C95.8512 338.58 95.6539 338.516 95.4939 338.388C95.3445 338.249 95.2645 338.073 95.2539 337.86C95.2539 337.647 95.3445 337.423 95.5259 337.188L97.7339 334.468L95.6859 331.94C95.4939 331.705 95.4032 331.481 95.4139 331.268C95.4245 331.055 95.5045 330.884 95.6539 330.756C95.8139 330.617 96.0112 330.548 96.2459 330.548C96.4912 330.548 96.6939 330.591 96.8539 330.676C97.0245 330.761 97.1792 330.895 97.3179 331.076L98.8859 333.092L100.47 331.076C100.619 330.895 100.774 330.761 100.934 330.676C101.094 330.591 101.291 330.548 101.526 330.548C101.771 330.548 101.969 330.617 102.118 330.756C102.267 330.895 102.342 331.071 102.342 331.284C102.353 331.497 102.262 331.721 102.07 331.956L100.022 334.468L102.246 337.188C102.438 337.412 102.529 337.631 102.518 337.844C102.507 338.057 102.422 338.233 102.262 338.372C102.113 338.511 101.915 338.58 101.67 338.58C101.243 338.58 100.891 338.404 100.614 338.052L98.8699 335.86L97.1419 338.052C97.0032 338.223 96.8539 338.356 96.6939 338.452C96.5339 338.537 96.3312 338.58 96.0859 338.58Z" fill="#F4EFFA"/>
<path d="M58.5303 309.47C58.2374 309.177 57.7626 309.177 57.4697 309.47L52.6967 314.243C52.4038 314.536 52.4038 315.01 52.6967 315.303C52.9896 315.596 53.4645 315.596 53.7574 315.303L58 311.061L62.2426 315.303C62.5355 315.596 63.0104 315.596 63.3033 315.303C63.5962 315.01 63.5962 314.536 63.3033 314.243L58.5303 309.47ZM57.4697 358.53C57.7626 358.823 58.2374 358.823 58.5303 358.53L63.3033 353.757C63.5962 353.464 63.5962 352.99 63.3033 352.697C63.0104 352.404 62.5355 352.404 62.2426 352.697L58 356.939L53.7574 352.697C53.4645 352.404 52.9896 352.404 52.6967 352.697C52.4038 352.99 52.4038 353.464 52.6967 353.757L57.4697 358.53ZM57.25 310V358H58.75V310H57.25Z" fill="#F4EFFA"/>
<g filter="url(#filter2_b_10_397)">
<rect y="697" width="360" height="0.330002" fill="black" fill-opacity="0.3"/>
<g filter="url(#filter3_b_10_397)">
<path fill-rule="evenodd" clip-rule="evenodd" d="M0 638H360V697H0V638Z" fill="#F9F9F9" fill-opacity="0.94"/>
</g>
<rect x="-317" y="650" width="325" height="36" rx="10" fill="black" fill-opacity="0.08"/>
<rect x="349" y="650" width="325" height="36" rx="10" fill="black" fill-opacity="0.08"/>
<rect x="16" y="650" width="325" height="36" rx="10" fill="black" fill-opacity="0.08"/>
<path d="M324.578 667.415C324.798 667.415 324.965 667.345 325.097 667.213L328.516 663.768C328.674 663.609 328.744 663.434 328.744 663.231C328.744 663.038 328.665 662.845 328.516 662.695L325.097 659.224C324.965 659.083 324.798 659.004 324.578 659.004C324.183 659.004 323.875 659.329 323.875 659.742C323.875 659.927 323.945 660.103 324.068 660.252L326.213 662.344C325.765 662.265 325.308 662.229 324.859 662.229C320.764 662.229 317.485 665.499 317.485 669.595C317.485 673.69 320.772 676.986 324.868 676.986C328.955 676.986 332.242 673.69 332.242 669.595C332.242 669.164 331.935 668.848 331.495 668.848C331.073 668.848 330.792 669.164 330.792 669.595C330.792 672.891 328.155 675.536 324.868 675.536C321.572 675.536 318.936 672.891 318.936 669.595C318.936 666.29 321.563 663.662 324.859 663.662C325.466 663.662 326.011 663.706 326.494 663.803L324.077 666.202C323.945 666.343 323.875 666.51 323.875 666.694C323.875 667.107 324.183 667.415 324.578 667.415Z" fill="black"/>
<path d="M35.3906 674.167C35.8389 674.167 36.0674 673.974 36.2432 673.481L37.2715 670.643H42.1318L43.1514 673.481C43.3271 673.974 43.5557 674.167 44.0039 674.167C44.4961 674.167 44.8213 673.877 44.8213 673.42C44.8213 673.262 44.7861 673.121 44.7246 672.928L40.8838 662.68C40.6729 662.108 40.2949 661.836 39.6973 661.836C39.126 661.836 38.7393 662.108 38.5371 662.671L34.6963 672.945C34.626 673.139 34.5996 673.279 34.5996 673.429C34.5996 673.886 34.8984 674.167 35.3906 674.167ZM37.6934 669.289L39.6709 663.752H39.7236L41.6924 669.289H37.6934ZM26.8828 674.167C27.252 674.167 27.498 673.982 27.6475 673.508L28.2803 671.68H31.3301L31.9629 673.508C32.1211 673.991 32.3672 674.167 32.7363 674.167C33.1846 674.167 33.501 673.877 33.501 673.455C33.501 673.297 33.4658 673.139 33.3867 672.919L30.9258 666.371C30.7324 665.844 30.3721 665.519 29.792 665.519C29.2383 665.519 28.8867 665.844 28.6934 666.371L26.2236 672.919C26.1445 673.139 26.1182 673.306 26.1182 673.455C26.1182 673.877 26.4258 674.167 26.8828 674.167ZM28.667 670.476L29.748 667.224H29.8535L30.9434 670.476H28.667Z" fill="black"/>
<path d="M155.734 669.867C155.734 671.154 155.44 672.19 154.852 672.977C154.263 673.763 153.466 674.156 152.461 674.156C151.435 674.156 150.628 673.831 150.039 673.18V677.25H148.594V665.547H149.914L149.984 666.484C150.573 665.755 151.391 665.391 152.438 665.391C153.453 665.391 154.255 665.773 154.844 666.539C155.438 667.305 155.734 668.37 155.734 669.734V669.867ZM154.289 669.703C154.289 668.75 154.086 667.997 153.68 667.445C153.273 666.893 152.716 666.617 152.008 666.617C151.133 666.617 150.477 667.005 150.039 667.781V671.82C150.471 672.591 151.133 672.977 152.023 672.977C152.716 672.977 153.266 672.703 153.672 672.156C154.083 671.604 154.289 670.786 154.289 669.703ZM161.664 666.844C161.445 666.807 161.208 666.789 160.953 666.789C160.005 666.789 159.362 667.193 159.023 668V674H157.578V665.547H158.984L159.008 666.523C159.482 665.768 160.154 665.391 161.023 665.391C161.305 665.391 161.518 665.427 161.664 665.5V666.844ZM162.461 669.695C162.461 668.867 162.622 668.122 162.945 667.461C163.273 666.799 163.727 666.289 164.305 665.93C164.888 665.57 165.552 665.391 166.297 665.391C167.448 665.391 168.378 665.789 169.086 666.586C169.799 667.383 170.156 668.443 170.156 669.766V669.867C170.156 670.69 169.997 671.43 169.68 672.086C169.367 672.737 168.917 673.245 168.328 673.609C167.745 673.974 167.073 674.156 166.312 674.156C165.167 674.156 164.237 673.758 163.523 672.961C162.815 672.164 162.461 671.109 162.461 669.797V669.695ZM163.914 669.867C163.914 670.805 164.13 671.557 164.562 672.125C165 672.693 165.583 672.977 166.312 672.977C167.047 672.977 167.63 672.69 168.062 672.117C168.495 671.539 168.711 670.732 168.711 669.695C168.711 668.768 168.49 668.018 168.047 667.445C167.609 666.867 167.026 666.578 166.297 666.578C165.583 666.578 165.008 666.862 164.57 667.43C164.133 667.997 163.914 668.81 163.914 669.867ZM171.617 669.703C171.617 668.406 171.924 667.365 172.539 666.578C173.154 665.786 173.958 665.391 174.953 665.391C175.943 665.391 176.727 665.729 177.305 666.406V662H178.75V674H177.422L177.352 673.094C176.773 673.802 175.969 674.156 174.938 674.156C173.958 674.156 173.159 673.755 172.539 672.953C171.924 672.151 171.617 671.104 171.617 669.812V669.703ZM173.062 669.867C173.062 670.826 173.26 671.576 173.656 672.117C174.052 672.659 174.599 672.93 175.297 672.93C176.214 672.93 176.883 672.518 177.305 671.695V667.812C176.872 667.016 176.208 666.617 175.312 666.617C174.604 666.617 174.052 666.891 173.656 667.438C173.26 667.984 173.062 668.794 173.062 669.867ZM186.219 673.164C185.656 673.826 184.831 674.156 183.742 674.156C182.841 674.156 182.154 673.896 181.68 673.375C181.211 672.849 180.974 672.073 180.969 671.047V665.547H182.414V671.008C182.414 672.289 182.935 672.93 183.977 672.93C185.081 672.93 185.815 672.518 186.18 671.695V665.547H187.625V674H186.25L186.219 673.164ZM193.219 672.977C193.734 672.977 194.185 672.82 194.57 672.508C194.956 672.195 195.169 671.805 195.211 671.336H196.578C196.552 671.82 196.385 672.281 196.078 672.719C195.771 673.156 195.359 673.505 194.844 673.766C194.333 674.026 193.792 674.156 193.219 674.156C192.068 674.156 191.151 673.773 190.469 673.008C189.792 672.237 189.453 671.185 189.453 669.852V669.609C189.453 668.786 189.604 668.055 189.906 667.414C190.208 666.773 190.641 666.276 191.203 665.922C191.771 665.568 192.44 665.391 193.211 665.391C194.159 665.391 194.945 665.674 195.57 666.242C196.201 666.81 196.536 667.547 196.578 668.453H195.211C195.169 667.906 194.961 667.458 194.586 667.109C194.216 666.755 193.758 666.578 193.211 666.578C192.477 666.578 191.906 666.844 191.5 667.375C191.099 667.901 190.898 668.664 190.898 669.664V669.938C190.898 670.911 191.099 671.661 191.5 672.188C191.901 672.714 192.474 672.977 193.219 672.977ZM200.164 663.5V665.547H201.742V666.664H200.164V671.906C200.164 672.245 200.234 672.5 200.375 672.672C200.516 672.839 200.755 672.922 201.094 672.922C201.26 672.922 201.49 672.891 201.781 672.828V674C201.401 674.104 201.031 674.156 200.672 674.156C200.026 674.156 199.539 673.961 199.211 673.57C198.883 673.18 198.719 672.625 198.719 671.906V666.664H197.18V665.547H198.719V663.5H200.164ZM203.469 673.242C203.469 672.992 203.542 672.784 203.688 672.617C203.839 672.451 204.062 672.367 204.359 672.367C204.656 672.367 204.88 672.451 205.031 672.617C205.188 672.784 205.266 672.992 205.266 673.242C205.266 673.482 205.188 673.682 205.031 673.844C204.88 674.005 204.656 674.086 204.359 674.086C204.062 674.086 203.839 674.005 203.688 673.844C203.542 673.682 203.469 673.482 203.469 673.242ZM209.227 674H207.781V665.547H209.227V674ZM207.664 663.305C207.664 663.07 207.734 662.872 207.875 662.711C208.021 662.549 208.234 662.469 208.516 662.469C208.797 662.469 209.01 662.549 209.156 662.711C209.302 662.872 209.375 663.07 209.375 663.305C209.375 663.539 209.302 663.734 209.156 663.891C209.01 664.047 208.797 664.125 208.516 664.125C208.234 664.125 208.021 664.047 207.875 663.891C207.734 663.734 207.664 663.539 207.664 663.305ZM211.164 669.695C211.164 668.867 211.326 668.122 211.648 667.461C211.977 666.799 212.43 666.289 213.008 665.93C213.591 665.57 214.255 665.391 215 665.391C216.151 665.391 217.081 665.789 217.789 666.586C218.503 667.383 218.859 668.443 218.859 669.766V669.867C218.859 670.69 218.701 671.43 218.383 672.086C218.07 672.737 217.62 673.245 217.031 673.609C216.448 673.974 215.776 674.156 215.016 674.156C213.87 674.156 212.94 673.758 212.227 672.961C211.518 672.164 211.164 671.109 211.164 669.797V669.695ZM212.617 669.867C212.617 670.805 212.833 671.557 213.266 672.125C213.703 672.693 214.286 672.977 215.016 672.977C215.75 672.977 216.333 672.69 216.766 672.117C217.198 671.539 217.414 670.732 217.414 669.695C217.414 668.768 217.193 668.018 216.75 667.445C216.312 666.867 215.729 666.578 215 666.578C214.286 666.578 213.711 666.862 213.273 667.43C212.836 667.997 212.617 668.81 212.617 669.867Z" fill="black"/>
</g>
<path fill-rule="evenodd" clip-rule="evenodd" d="M0 0H40C17.9086 0 9.37959e-06 17.9086 9.10769e-06 40L0 740V0ZM0 740C0 762.091 17.9086 780 40 780H0V740ZM360 40C360 17.9086 342.091 0 320 0H360V40ZM320 780C342.091 780 360 762.091 360 740V780H320ZM260.961 31H98.0391C85.3365 31 75.0391 20.7025 75.0391 7.96098L75.0455 4.18098C75.0457 4.08563 75.0375 3.98943 75.0044 3.9C74.3333 2.08608 72.7796 0.67396 70.8918 0.216238L70 0H289L288.108 0.216238C286.211 0.676168 284.668 2.07301 284.002 3.9C283.969 3.99048 283.954 4.08452 283.954 4.18082L283.961 8C283.961 20.7025 273.664 31 260.961 31Z" fill="black"/>
<path d="M23.9 247C23.42 247 23.18 246.765 23.18 246.296C23.18 245.837 23.42 245.608 23.9 245.608H25.852V237.624L24.348 238.584C24.1453 238.712 23.9533 238.749 23.772 238.696C23.6013 238.632 23.468 238.52 23.372 238.36C23.2867 238.2 23.26 238.029 23.292 237.848C23.3347 237.656 23.4573 237.496 23.66 237.368L25.868 235.976C26.0493 235.869 26.22 235.784 26.38 235.72C26.5507 235.645 26.7107 235.608 26.86 235.608C27.0413 235.608 27.1907 235.661 27.308 235.768C27.436 235.875 27.5 236.04 27.5 236.264V245.608H29.292C29.7827 245.608 30.028 245.837 30.028 246.296C30.028 246.765 29.7827 247 29.292 247H23.9ZM35.9338 247.144C34.5684 247.144 33.5124 246.659 32.7658 245.688C32.0298 244.717 31.6618 243.357 31.6618 241.608C31.6618 239.677 32.0778 238.189 32.9098 237.144C33.7418 236.099 34.8938 235.576 36.3658 235.576C36.8351 235.576 37.3204 235.661 37.8218 235.832C38.3338 235.992 38.7978 236.237 39.2138 236.568C39.3844 236.685 39.4804 236.84 39.5018 237.032C39.5231 237.213 39.4911 237.384 39.4058 237.544C39.3204 237.693 39.1924 237.795 39.0218 237.848C38.8618 237.901 38.6804 237.859 38.4778 237.72C38.1151 237.453 37.7524 237.267 37.3898 237.16C37.0378 237.043 36.6858 236.984 36.3338 236.984C35.3418 236.984 34.5791 237.347 34.0458 238.072C33.5231 238.787 33.2618 239.859 33.2618 241.288V241.928C33.4751 241.277 33.8431 240.771 34.3658 240.408C34.8991 240.035 35.5124 239.848 36.2058 239.848C36.8671 239.848 37.4484 240.003 37.9498 240.312C38.4618 240.621 38.8618 241.048 39.1498 241.592C39.4378 242.125 39.5818 242.739 39.5818 243.432C39.5818 244.157 39.4271 244.803 39.1178 245.368C38.8084 245.923 38.3764 246.36 37.8218 246.68C37.2778 246.989 36.6484 247.144 35.9338 247.144ZM35.8378 245.8C36.4884 245.8 37.0164 245.587 37.4218 245.16C37.8271 244.733 38.0298 244.179 38.0298 243.496C38.0298 242.813 37.8271 242.259 37.4218 241.832C37.0164 241.405 36.4884 241.192 35.8378 241.192C35.1871 241.192 34.6591 241.405 34.2538 241.832C33.8484 242.259 33.6458 242.813 33.6458 243.496C33.6458 244.179 33.8484 244.733 34.2538 245.16C34.6591 245.587 35.1871 245.8 35.8378 245.8ZM41.9835 249.992C41.4502 249.992 41.1835 249.72 41.1835 249.176V239.896C41.1835 239.352 41.4448 239.08 41.9675 239.08C42.5008 239.08 42.7675 239.352 42.7675 239.896V240.504C43.0022 240.056 43.3488 239.704 43.8075 239.448C44.2662 239.181 44.7888 239.048 45.3755 239.048C46.0688 239.048 46.6715 239.213 47.1835 239.544C47.7062 239.875 48.1062 240.344 48.3835 240.952C48.6715 241.549 48.8155 242.264 48.8155 243.096C48.8155 243.928 48.6715 244.648 48.3835 245.256C48.1062 245.864 47.7062 246.333 47.1835 246.664C46.6715 246.984 46.0688 247.144 45.3755 247.144C44.7995 247.144 44.2822 247.021 43.8235 246.776C43.3755 246.52 43.0342 246.173 42.7995 245.736V249.176C42.7995 249.72 42.5275 249.992 41.9835 249.992ZM44.9755 245.896C45.6475 245.896 46.1808 245.656 46.5755 245.176C46.9808 244.696 47.1835 244.003 47.1835 243.096C47.1835 242.189 46.9808 241.501 46.5755 241.032C46.1808 240.552 45.6475 240.312 44.9755 240.312C44.3035 240.312 43.7648 240.552 43.3595 241.032C42.9648 241.501 42.7675 242.189 42.7675 243.096C42.7675 244.003 42.9648 244.696 43.3595 245.176C43.7648 245.656 44.3035 245.896 44.9755 245.896ZM50.4411 247.096C50.1531 247.096 49.9451 246.979 49.8171 246.744C49.6998 246.509 49.7585 246.243 49.9931 245.944L52.3931 242.968L50.1691 240.216C49.9238 239.928 49.8651 239.667 49.9931 239.432C50.1211 239.197 50.3238 239.08 50.6011 239.08C50.8038 239.08 50.9691 239.117 51.0971 239.192C51.2358 239.256 51.3638 239.368 51.4811 239.528L53.3211 241.864L55.1771 239.528C55.2945 239.368 55.4171 239.256 55.5451 239.192C55.6731 239.117 55.8385 239.08 56.0411 239.08C56.3185 239.08 56.5211 239.197 56.6491 239.432C56.7771 239.667 56.7185 239.933 56.4731 240.232L54.2491 242.984L56.6491 245.944C56.8838 246.232 56.9371 246.499 56.8091 246.744C56.6918 246.979 56.4891 247.096 56.2011 247.096C55.8491 247.096 55.5558 246.947 55.3211 246.648L53.3051 244.12L51.3051 246.648C51.1878 246.797 51.0651 246.909 50.9371 246.984C50.8091 247.059 50.6438 247.096 50.4411 247.096Z" fill="#8431EC"/>
<path d="M-0.265165 241.735C-0.411612 241.881 -0.411612 242.119 -0.265165 242.265L2.12132 244.652C2.26777 244.798 2.5052 244.798 2.65165 244.652C2.7981 244.505 2.7981 244.268 2.65165 244.121L0.53033 242L2.65165 239.879C2.7981 239.732 2.7981 239.495 2.65165 239.348C2.5052 239.202 2.26777 239.202 2.12132 239.348L-0.265165 241.735ZM16.2652 242.265C16.4116 242.119 16.4116 241.881 16.2652 241.735L13.8787 239.348C13.7322 239.202 13.4948 239.202 13.3483 239.348C13.2019 239.495 13.2019 239.732 13.3483 239.879L15.4697 242L13.3483 244.121C13.2019 244.268 13.2019 244.505 13.3483 244.652C13.4948 244.798 13.7322 244.798 13.8787 244.652L16.2652 242.265ZM0 242.375H16V241.625H0L0 242.375Z" fill="#9847FE"/>
<path d="M309.9 247C309.42 247 309.18 246.765 309.18 246.296C309.18 245.837 309.42 245.608 309.9 245.608H311.852V237.624L310.348 238.584C310.145 238.712 309.953 238.749 309.772 238.696C309.601 238.632 309.468 238.52 309.372 238.36C309.287 238.2 309.26 238.029 309.292 237.848C309.335 237.656 309.457 237.496 309.66 237.368L311.868 235.976C312.049 235.869 312.22 235.784 312.38 235.72C312.551 235.645 312.711 235.608 312.86 235.608C313.041 235.608 313.191 235.661 313.308 235.768C313.436 235.875 313.5 236.04 313.5 236.264V245.608H315.292C315.783 245.608 316.028 245.837 316.028 246.296C316.028 246.765 315.783 247 315.292 247H309.9ZM321.934 247.144C320.568 247.144 319.512 246.659 318.766 245.688C318.03 244.717 317.662 243.357 317.662 241.608C317.662 239.677 318.078 238.189 318.91 237.144C319.742 236.099 320.894 235.576 322.366 235.576C322.835 235.576 323.32 235.661 323.822 235.832C324.334 235.992 324.798 236.237 325.214 236.568C325.384 236.685 325.48 236.84 325.502 237.032C325.523 237.213 325.491 237.384 325.406 237.544C325.32 237.693 325.192 237.795 325.022 237.848C324.862 237.901 324.68 237.859 324.478 237.72C324.115 237.453 323.752 237.267 323.39 237.16C323.038 237.043 322.686 236.984 322.334 236.984C321.342 236.984 320.579 237.347 320.046 238.072C319.523 238.787 319.262 239.859 319.262 241.288V241.928C319.475 241.277 319.843 240.771 320.366 240.408C320.899 240.035 321.512 239.848 322.206 239.848C322.867 239.848 323.448 240.003 323.95 240.312C324.462 240.621 324.862 241.048 325.15 241.592C325.438 242.125 325.582 242.739 325.582 243.432C325.582 244.157 325.427 244.803 325.118 245.368C324.808 245.923 324.376 246.36 323.822 246.68C323.278 246.989 322.648 247.144 321.934 247.144ZM321.838 245.8C322.488 245.8 323.016 245.587 323.422 245.16C323.827 244.733 324.03 244.179 324.03 243.496C324.03 242.813 323.827 242.259 323.422 241.832C323.016 241.405 322.488 241.192 321.838 241.192C321.187 241.192 320.659 241.405 320.254 241.832C319.848 242.259 319.646 242.813 319.646 243.496C319.646 244.179 319.848 244.733 320.254 245.16C320.659 245.587 321.187 245.8 321.838 245.8ZM327.984 249.992C327.45 249.992 327.184 249.72 327.184 249.176V239.896C327.184 239.352 327.445 239.08 327.968 239.08C328.501 239.08 328.768 239.352 328.768 239.896V240.504C329.002 240.056 329.349 239.704 329.808 239.448C330.266 239.181 330.789 239.048 331.376 239.048C332.069 239.048 332.672 239.213 333.184 239.544C333.706 239.875 334.106 240.344 334.384 240.952C334.672 241.549 334.816 242.264 334.816 243.096C334.816 243.928 334.672 244.648 334.384 245.256C334.106 245.864 333.706 246.333 333.184 246.664C332.672 246.984 332.069 247.144 331.376 247.144C330.8 247.144 330.282 247.021 329.824 246.776C329.376 246.52 329.034 246.173 328.8 245.736V249.176C328.8 249.72 328.528 249.992 327.984 249.992ZM330.976 245.896C331.648 245.896 332.181 245.656 332.576 245.176C332.981 244.696 333.184 244.003 333.184 243.096C333.184 242.189 332.981 241.501 332.576 241.032C332.181 240.552 331.648 240.312 330.976 240.312C330.304 240.312 329.765 240.552 329.36 241.032C328.965 241.501 328.768 242.189 328.768 243.096C328.768 244.003 328.965 244.696 329.36 245.176C329.765 245.656 330.304 245.896 330.976 245.896ZM336.441 247.096C336.153 247.096 335.945 246.979 335.817 246.744C335.7 246.509 335.758 246.243 335.993 245.944L338.393 242.968L336.169 240.216C335.924 239.928 335.865 239.667 335.993 239.432C336.121 239.197 336.324 239.08 336.601 239.08C336.804 239.08 336.969 239.117 337.097 239.192C337.236 239.256 337.364 239.368 337.481 239.528L339.321 241.864L341.177 239.528C341.294 239.368 341.417 239.256 341.545 239.192C341.673 239.117 341.838 239.08 342.041 239.08C342.318 239.08 342.521 239.197 342.649 239.432C342.777 239.667 342.718 239.933 342.473 240.232L340.249 242.984L342.649 245.944C342.884 246.232 342.937 246.499 342.809 246.744C342.692 246.979 342.489 247.096 342.201 247.096C341.849 247.096 341.556 246.947 341.321 246.648L339.305 244.12L337.305 246.648C337.188 246.797 337.065 246.909 336.937 246.984C336.809 247.059 336.644 247.096 336.441 247.096Z" fill="#8431EC"/>
</g>
<defs>
<filter id="filter0_b_10_397" x="-24" y="680.67" width="407" height="115.33" filterUnits="userSpaceOnUse" color-interpolation-filters="sRGB">
<feFlood flood-opacity="0" result="BackgroundImageFix"/>
<feGaussianBlur in="BackgroundImage" stdDeviation="8"/>
<feComposite in2="SourceAlpha" operator="in" result="effect1_backgroundBlur_10_397"/>
<feBlend mode="normal" in="SourceGraphic" in2="effect1_backgroundBlur_10_397" result="shape"/>
</filter>
<filter id="filter1_b_10_397" x="-28" y="677" width="415" height="123" filterUnits="userSpaceOnUse" color-interpolation-filters="sRGB">
<feFlood flood-opacity="0" result="BackgroundImageFix"/>
<feGaussianBlur in="BackgroundImage" stdDeviation="10"/>
<feComposite in2="SourceAlpha" operator="in" result="effect1_backgroundBlur_10_397"/>
<feBlend mode="normal" in="SourceGraphic" in2="effect1_backgroundBlur_10_397" result="shape"/>
</filter>
<filter id="filter2_b_10_397" x="-333" y="622" width="1023" height="92" filterUnits="userSpaceOnUse" color-interpolation-filters="sRGB">
<feFlood flood-opacity="0" result="BackgroundImageFix"/>
<feGaussianBlur in="BackgroundImage" stdDeviation="8"/>
<feComposite in2="SourceAlpha" operator="in" result="effect1_backgroundBlur_10_397"/>
<feBlend mode="normal" in="SourceGraphic" in2="effect1_backgroundBlur_10_397" result="shape"/>
</filter>
<filter id="filter3_b_10_397" x="-20" y="618" width="400" height="99" filterUnits="userSpaceOnUse" color-interpolation-filters="sRGB">
<feFlood flood-opacity="0" result="BackgroundImageFix"/>
<feGaussianBlur in="BackgroundImage" stdDeviation="10"/>
<feComposite in2="SourceAlpha" operator="in" result="effect1_backgroundBlur_10_397"/>
<feBlend mode="normal" in="SourceGraphic" in2="effect1_backgroundBlur_10_397" result="shape"/>
</filter>
<clipPath id="clip0_10_397">
<rect width="360" height="780" fill="white"/>
</clipPath>
</defs>
</svg>
