<svg xmlns="http://www.w3.org/2000/svg" version="1.1" xmlns:xlink="http://www.w3.org/1999/xlink" xmlns:svgjs="http://svgjs.dev/svgjs" viewBox="0 0 600 600" opacity="1"><path d="M385.03936767578125,244.48818969726562C370.8661397298177,207.08661715189615,294.09449768066406,83.46456654866536,285.8267822265625,54.33070755004883C277.55906677246094,25.196848551432293,325.59055582682294,20.472438176472984,335.4330749511719,69.6850357055664C345.2755940755208,118.89763323465982,359.84252675374347,282.8740094502767,344.88189697265625,349.6062927246094C329.92126719156903,416.3385759989421,270.07874552408856,468.1102294921875,245.66929626464844,470.0787353515625C221.25984700520834,472.0472412109375,217.12598927815756,385.6299235026042,198.42520141601562,361.4173278808594C179.7244135538737,337.20473225911456,149.80315272013345,336.2204844156901,133.46456909179688,324.80316162109375C117.12598546346028,313.3858388264974,89.37007904052734,302.3622131347656,100.3936996459961,292.91339111328125C111.41732025146484,283.4645690917969,179.9212532043457,277.16534932454425,199.60629272460938,268.1102294921875C219.29133224487305,259.05510965983075,224.4094467163086,246.0629857381185,218.50393676757812,238.58267211914062C212.59842681884766,231.10235850016275,179.7244135538737,221.2598419189453,164.17323303222656,223.2283477783203C148.62205251057944,225.1968536376953,130.9055150349935,235.43307749430338,125.19685363769531,250.39370727539062C119.48819224039714,265.35433705647785,120.07874552408855,299.8031514485677,129.9212646484375,312.99212646484375C139.76378377278647,326.1811014811198,151.18110148111978,335.23622131347656,184.25196838378906,329.5275573730469C217.32283528645834,323.8188934326172,302.16536204020184,300.1968358357747,328.3464660644531,278.7401428222656C354.5275700887044,257.28344980875653,344.4881998697917,216.7322794596354,341.3385925292969,200.7873992919922C338.18898518880206,184.84251912434897,326.3779576619466,199.01574325561523,309.4488220214844,183.07086181640625C292.51968638102215,167.12598037719727,248.2283477783203,124.01574834187825,239.76377868652344,105.11811065673828C231.29920959472656,86.22047297159831,251.77164459228516,77.55905151367188,258.6614074707031,69.6850357055664C265.5511703491211,61.81101989746094,275.19684346516925,57.48031489054362,281.10235595703125,57.87401580810547C287.00786844889325,58.26771672566732,275.98424275716144,37.79527155558268,294.094482421875,72.0472412109375C312.20472208658856,106.29921086629233,360.0393829345703,225.5905558268229,389.7637939453125,263.3858337402344C419.4882049560547,301.1811116536458,449.01575724283856,287.2047373453776,472.4409484863281,298.81890869140625C495.8661397298177,310.4330800374349,523.8188781738281,315.3543294270833,530.31494140625,333.07086181640625C536.8110046386719,350.7873942057292,527.9527587890625,390.3543243408203,511.4173278808594,405.11810302734375C494.88189697265625,419.8818817138672,452.7559000651042,428.34644571940106,431.10235595703125,421.6535339355469C409.4488118489583,414.9606221516927,392.3228352864583,381.10236104329425,381.4960632324219,364.96063232421875C370.66929117838544,348.81890360514325,367.9133758544922,339.1732432047526,366.1417236328125,324.80316162109375C364.3700714111328,310.4330800374349,367.71654256184894,292.125971476237,370.86614990234375,278.7401428222656C374.01575724283856,265.35431416829425,399.2125956217448,281.8897622426351,385.03936767578125,244.48818969726562C370.8661397298177,207.08661715189615,294.09449768066406,83.46456654866536,285.8267822265625,54.33070755004883" fill="hsl(340, 45%, 50%)" transform="matrix(1,0,0,1,-15.165061950683594,48.698299407958984)"></path><path d="M399.1910121720773 164.23023779130028C385.01778422611375 126.82866524593081 308.2461421769601 3.2066146427000177 299.97842672285856 -25.927244355916514C291.710711268757 -55.061103354533046 339.742200323119 -59.78551372949236 349.58471944746793 -10.572916200398936C359.4272385718169 38.63968132869448 373.9941712500395 202.61605754431133 359.0335414689523 269.34834081864403C344.0729116878651 336.08062409297673 284.2303900203846 387.85227758622216 259.8209407609445 389.82078344559716C235.4114915015044 391.78928930497216 231.27763377445362 305.37197159663884 212.57684591231168 281.15937597489403C193.87605805016975 256.9467803531492 163.9547972164295 255.96253250972478 147.61621358809293 244.5452097151284C131.27762995975633 233.12788692053203 103.5217235368234 222.10426122880028 114.54534414229215 212.6554392073159C125.5689647477609 203.20661718583153 194.07289770064176 196.9073974185789 213.75793722090543 187.85227758622216C233.4429767411691 178.7971577538654 238.56109121260465 165.80503383215316 232.65558126387418 158.32472021317528C226.7500713151437 150.8444065941974 193.87605805016975 141.00189001297997 178.32487752852262 142.97039587235497C162.7736970068755 144.93890173172997 145.05715953128956 155.17512558833803 139.34849813399137 170.13575536942528C133.6398367366932 185.0963851505125 134.23039002038462 219.54519954260235 144.07290914473356 232.7341745588784C153.91542826908253 245.92314957515447 165.33274597741584 254.97826940751122 198.40361288008512 249.26960546708153C231.4744797827544 243.56094152665185 316.3170065364979 219.93888392980938 342.4981105607492 198.48219091630028C368.67921458500047 177.0254979027912 358.63984436608774 136.47432755367007 355.49023702559293 120.52944738602685C352.3406296850981 104.58456721838363 340.52960215824265 118.75779134964989 323.60046651778043 102.81290991044091C306.6713308773182 86.86802847123192 262.37999227461637 43.75779643591291 253.9154231828195 24.86015875077294C245.45085409102262 5.96252106563297 265.9232890885812 -2.698900392293467 272.8130519669992 -10.572916200398936C279.70281484541715 -18.446932008504405 289.3484879614653 -22.777637015421725 295.2540004533273 -22.383936097859873C301.1595129451893 -21.990235180298022 290.1358872534575 -42.46268035038266 308.24612691817106 -8.210710695027842C326.3563665828846 26.041258960326985 374.19102743086637 145.33260392085757 403.91543844160856 183.12788183426903C433.63984945235075 220.92315974768047 463.1674017391346 206.94678543941228 486.5925929826242 218.5609567854409C510.01778422611375 230.17512813146953 537.9705226701242 235.09637752111797 544.4665859025461 252.8129099104409C550.9626491349679 270.52944229976384 542.1044032853586 310.09637243485497 525.5689723771554 324.8601511213784C509.0335414689523 339.62392980790185 466.90754456140024 348.0884938134357 445.2540004533273 341.39558202958153C423.6004563452544 334.70267024572735 406.4744797827544 300.8444091373289 395.64770772871793 284.7026804182534C384.8209356746815 268.5609516991779 382.06502035078825 258.9152912987873 380.29336812910856 244.5452097151284C378.52171590742887 230.17512813146953 381.868187058145 211.86801957027166 385.0177943986398 198.48219091630028C388.1674017391346 185.0963622623289 413.36424011804087 201.63181033666973 399.1910121720773 164.23023779130028C385.01778422611375 126.82866524593081 308.2461421769601 3.2066146427000177 299.97842672285856 -25.927244355916514 " fill-opacity="0.6" fill="url(&quot;#ssshape-pattern7&quot;)" opacity="1" stroke-opacity="1" stroke-width="0" stroke="hsl(340, 45%, 30%)" transform="matrix(-0.1736481776669302,-0.9848077530122082,0.9848077530122082,-0.1736481776669302,197.40903753451028,680.3167794320555)"></path><defs><pattern id="ssshape-pattern7" width="90" height="90" viewBox="0 0 40 40" patternUnits="userSpaceOnUse" patternTransform="scale(undefined) rotate(undefined)">
  <rect width="100%" height="100%" fill="hsl(340, 45%, 50%)"></rect>
  <path d="M0 0L20 0L20 20L0 20L0 0zM3.3 3.3L6 14L16.7 16.7L14 6zM20 20L40 20L40 40L20 40L20 20zM23.3 23.3L26 34L36.7 36.7L34 26z" fill="hsl(340, 45%, 25%)" fill-opacity="0.5"></path>
  <path d="M26 6L36.7 3.3L34 14L23 17zM6 26L17 23L14 34L3.3 36.7z" fill="hsl(340, 45%, 25%)"></path>
</pattern></defs></svg>